<?xml version="1.0" encoding="UTF-8"?>
<svg id="SVGDoc" width="156" height="76" xmlns="http://www.w3.org/2000/svg" version="1.1" xmlns:xlink="http://www.w3.org/1999/xlink" xmlns:avocode="https://avocode.com/" viewBox="0 0 156 76"><g><g><g><path d="M155.279,52.885v9.287h-2.11l-14.904,6.526c0.62,-1.782 0.973,-3.688 0.973,-5.682c0,-9.559 -7.748,-17.308 -17.308,-17.308c-9.559,0 -17.309,7.749 -17.309,17.308c0,2.108 0.397,4.119 1.086,5.988l-51.88,-0.283c0.624,-1.787 0.982,-3.701 0.982,-5.705c0,-9.559 -7.749,-17.308 -17.309,-17.308c-9.559,0 -17.308,7.749 -17.308,17.308c0,1.951 0.338,3.818 0.932,5.568l-18.781,-0.079c0,0 -0.042,-0.6 -0.104,-1.688h-1.888v-9.287h1.511c-0.514,-19.378 0.119,-57.638 13.145,-57.638h129.297c13.084,0 11.446,35.635 9.872,52.993zM34.545,8.981c0,0 -8.021,-0.42 -17.309,0c-9.287,0.422 -9.287,43.906 -9.287,43.906c0,0 8.443,-1.689 8.021,-7.599c-0.422,-5.911 18.575,-13.51 18.575,-13.51zM57.553,8.982h-17.731v20.897h17.731zM79.082,8.982h-17.73v20.897h17.73zM100.611,8.982h-17.73v20.897h17.73zM122.142,8.982h-17.73v20.897h17.73zM143.67,8.982h-17.729v20.897h17.729z" fill="#254a9c" fill-opacity="1"></path></g><g><path d="M37.9219,50.2178c7.052,0 12.77,5.717 12.77,12.769c0,7.054 -5.718,12.771 -12.77,12.771c-7.053,0 -12.77,-5.717 -12.77,-12.771c0,-7.052 5.717,-12.769 12.77,-12.769zM37.9219,71.3598c4.622,0 8.369,-3.748 8.369,-8.373c0,-4.621 -3.747,-8.367 -8.369,-8.367c-4.623,0 -8.37,3.746 -8.37,8.367c0,4.625 3.747,8.373 8.37,8.373z" fill="#254a9c" fill-opacity="1"></path></g><g><path d="M122.3516,50.2178c7.053,0 12.77,5.717 12.77,12.769c0,7.054 -5.717,12.771 -12.77,12.771c-7.052,0 -12.77,-5.717 -12.77,-12.771c0,-7.052 5.718,-12.769 12.77,-12.769zM122.3516,71.3598c4.623,0 8.37,-3.748 8.37,-8.373c0,-4.621 -3.747,-8.367 -8.37,-8.367c-4.621,0 -8.369,3.746 -8.369,8.367c0,4.625 3.748,8.373 8.369,8.373z" fill="#254a9c" fill-opacity="1"></path></g></g></g></svg>