<?xml version="1.0" encoding="UTF-8"?>
<svg id="SVGDoc" width="922" height="991" xmlns="http://www.w3.org/2000/svg" version="1.1" xmlns:xlink="http://www.w3.org/1999/xlink" xmlns:avocode="https://avocode.com/" viewBox="0 0 922 991"><g><g><g><path d="M851.6641,990.9551v0h-781.329c-38.695,0 -70.065,-31.369 -70.065,-70.064v-741.195c0,-38.696 31.37,-70.065 70.065,-70.065h781.329c38.696,0 70.065,31.369 70.065,70.065v741.195c0,38.695 -31.369,70.064 -70.065,70.064z" fill="#0a4c98" fill-opacity="1"></path></g><g><path d="M826.6992,939.083v0h-723.079c-26.686,0 -48.319,-21.634 -48.319,-48.319v-518.493v0h811.398v0v526.812c0,22.091 -17.908,40 -40,40z" fill="#ffffff" fill-opacity="1"></path></g><g><path d="M248.5171,542.9375v0h-69.99c-11.046,0 -20,-8.955 -20,-20v-69.99c0,-11.046 8.954,-20 20,-20h69.99c11.046,0 20,8.954 20,20v69.99c0,11.045 -8.954,20 -20,20z" fill="#0a4c98" fill-opacity="1"></path></g><g><path d="M413.5024,542.9375v0h-69.99c-11.046,0 -20,-8.955 -20,-20v-69.99c0,-11.046 8.954,-20 20,-20h69.99c11.046,0 20,8.954 20,20v69.99c0,11.045 -8.954,20 -20,20z" fill="#0a4c98" fill-opacity="1"></path></g><g><path d="M578.4873,542.9375v0h-69.99c-11.045,0 -20,-8.955 -20,-20v-69.99c0,-11.046 8.955,-20 20,-20h69.99c11.046,0 20,8.954 20,20v69.99c0,11.045 -8.954,20 -20,20z" fill="#0a4c98" fill-opacity="1"></path></g><g><path d="M743.4727,542.9375v0h-69.99c-11.045,0 -20,-8.955 -20,-20v-69.99c0,-11.046 8.955,-20 20,-20h69.99c11.046,0 20,8.954 20,20v69.99c0,11.045 -8.954,20 -20,20z" fill="#0a4c98" fill-opacity="1"></path></g><g><path d="M248.5171,707.9229v0h-69.99c-11.046,0 -20,-8.955 -20,-20v-69.99c0,-11.046 8.954,-20 20,-20h69.99c11.046,0 20,8.954 20,20v69.99c0,11.045 -8.954,20 -20,20z" fill="#0a4c98" fill-opacity="1"></path></g><g><path d="M578.4873,707.9229v0h-69.99c-11.045,0 -20,-8.955 -20,-20v-69.99c0,-11.046 8.955,-20 20,-20h69.99c11.046,0 20,8.954 20,20v69.99c0,11.045 -8.954,20 -20,20z" fill="#0a4c98" fill-opacity="1"></path></g><g><path d="M743.4727,707.9229v0h-69.99c-11.045,0 -20,-8.955 -20,-20v-69.99c0,-11.046 8.955,-20 20,-20h69.99c11.046,0 20,8.954 20,20v69.99c0,11.045 -8.954,20 -20,20z" fill="#0a4c98" fill-opacity="1"></path></g><g><path d="M248.5171,878.4072v0h-69.99c-11.046,0 -20,-8.954 -20,-20v-69.99c0,-11.046 8.954,-20 20,-20h69.99c11.046,0 20,8.954 20,20v69.99c0,11.046 -8.954,20 -20,20z" fill="#0a4c98" fill-opacity="1"></path></g><g><path d="M413.5024,878.4072v0h-69.99c-11.046,0 -20,-8.954 -20,-20v-69.99c0,-11.046 8.954,-20 20,-20h69.99c11.046,0 20,8.954 20,20v69.99c0,11.046 -8.954,20 -20,20z" fill="#0a4c98" fill-opacity="1"></path></g><g><path d="M578.4873,878.4072v0h-69.99c-11.045,0 -20,-8.954 -20,-20v-69.99c0,-11.046 8.955,-20 20,-20h69.99c11.046,0 20,8.954 20,20v69.99c0,11.046 -8.954,20 -20,20z" fill="#0a4c98" fill-opacity="1"></path></g><g><path d="M413.5024,707.252v0h-69.99c-11.046,0 -20,-8.955 -20,-20v-69.99c0,-11.046 8.954,-20 20,-20h69.99c11.046,0 20,8.954 20,20v69.99c0,11.045 -8.954,20 -20,20z" fill="#0a4c98" fill-opacity="1"></path></g><g><path d="M277.3394,199.8237c0,30.851 -25.009,55.86 -55.86,55.86c-30.85,0 -55.86,-25.009 -55.86,-55.86c0,-30.851 25.01,-55.86 55.86,-55.86c30.851,0 55.86,25.009 55.86,55.86z" fill="#ffffff" fill-opacity="1"></path></g><g><path d="M221.4795,236.3149v0v0c-19.937,0 -36.099,-16.162 -36.099,-36.099v-163.617c0,-19.937 16.162,-36.099 36.099,-36.099c19.937,0 36.099,16.162 36.099,36.099v163.617c0,19.937 -16.162,36.099 -36.099,36.099z" fill="#0a4c98" fill-opacity="1"></path></g><g><path d="M739.6406,199.8237c0,30.851 -25.01,55.86 -55.859,55.86c-30.851,0 -55.861,-25.009 -55.861,-55.86c0,-30.851 25.01,-55.86 55.861,-55.86c30.849,0 55.859,25.009 55.859,55.86z" fill="#ffffff" fill-opacity="1"></path></g><g><path d="M683.7813,236.3149v0v0c-19.937,0 -36.1,-16.162 -36.1,-36.099v-163.617c0,-19.937 16.163,-36.099 36.1,-36.099c19.937,0 36.099,16.162 36.099,36.099v163.617c0,19.937 -16.162,36.099 -36.099,36.099z" fill="#0a4c98" fill-opacity="1"></path></g></g></g></svg>