<?xml version="1.0" encoding="UTF-8"?>
<svg id="SVGDoc" width="257" height="256" xmlns="http://www.w3.org/2000/svg" version="1.1" xmlns:xlink="http://www.w3.org/1999/xlink" xmlns:avocode="https://avocode.com/" viewBox="0 0 257 256"><defs></defs><desc>Generated with Avocode.</desc><g><g><title>&lt;Path&gt;</title><path d="M178.3877,127.8373v0l67.7,-67.714c13.489,-13.476 13.489,-35.528 0,-49.004l-0.829,-0.829c-13.475,-13.491 -35.527,-13.491 -49.004,0l-67.714,67.714v0l-67.714,-67.714c-13.476,-13.491 -35.528,-13.491 -49.018,-0.014l-0.829,0.843c-13.476,13.476 -13.476,35.528 0,49.004l67.715,67.714v0l-67.715,67.714c-13.476,13.477 -13.476,35.541 0,49.005l0.829,0.842c13.49,13.477 35.542,13.477 49.018,0l67.714,-67.728v0l67.714,67.728c13.477,13.477 35.529,13.477 49.004,0l0.829,-0.842c13.489,-13.464 13.489,-35.528 0,-49.005z" fill="#254a9c" fill-opacity="1"></path></g></g></svg>