<svg xmlns="http://www.w3.org/2000/svg" width="640" height="640" viewBox="0 0 640 640"><g><g><g><path fill="#faa918" d="M320 0c176.45 0 320 143.55 320 320S496.45 640 320 640c-54.75 0-108.55-14-155.95-40.55l-133 36.35a19.38 19.38 0 0 1-5.014.65c-6.22 0-12.483-2.868-16.336-7.9-3.85-5-5.1-11.4-3.45-17.6l36.05-131.9a317.706 317.706 0 0 1-30.55-72.85C3.95 378.25 0 349.25 0 320 0 143.55 143.55 0 320 0zm0 620c165.421 0 300-134.579 300-300 0-165.42-134.579-300-300-300C154.58 20 20 154.58 20 320c0 27.443 3.706 54.636 11.014 80.824a297.816 297.816 0 0 0 28.623 68.254l4.15 7.216-2.195 8.028-36.05 131.901a.761.761 0 0 0-.002.135l.006-.001c.048 0 .277.079.447.091l132.784-36.291 7.901-2.159 7.146 4.003C218.205 606.86 268.752 620 320 620z"/></g><g><path fill="#faa918" d="M370 430v30H270v-30h30V300h-30v-30h70v160z"/></g><g><path fill="#faa918" d="M340 210c0 16.562-13.438 30-30 30-16.563 0-30-13.438-30-30 0-16.562 13.437-30 30-30 16.562 0 30 13.438 30 30z"/></g></g></g></svg>