<?xml version="1.0" encoding="UTF-8"?>
<svg id="SVGDoc" width="215" height="354" xmlns="http://www.w3.org/2000/svg" version="1.1" xmlns:xlink="http://www.w3.org/1999/xlink" xmlns:avocode="https://avocode.com/" viewBox="0 0 215 354"><defs></defs><desc>Generated with Avocode.</desc><g><g><title>&lt;Path&gt;</title><path d="M107.7363,4.4327c56.93,0 103.08,46.151 103.08,103.082c0,47.881 -72.918,193.169 -96.096,238.139c-2.925,5.68 -11.041,5.68 -13.968,0c-23.178,-44.97 -96.096,-190.258 -96.096,-238.139c0,-56.931 46.15,-103.082 103.08,-103.082zM107.7363,168.5487c33.428,0 60.525,-27.097 60.525,-60.525c0,-33.427 -27.097,-60.526 -60.525,-60.526c-33.426,0 -60.525,27.099 -60.525,60.526c0,33.428 27.099,60.525 60.525,60.525z" fill="#f7a10e" fill-opacity="1"></path></g><g><title>&lt;Path&gt;</title><path d="M107.7363,4.4327c56.93,0 103.08,46.151 103.08,103.082c0,47.881 -72.918,193.169 -96.096,238.139c-2.925,5.68 -11.041,5.68 -13.968,0c-23.178,-44.97 -96.096,-190.258 -96.096,-238.139c0,-56.931 46.15,-103.082 103.08,-103.082zM107.7363,168.5487c33.428,0 60.525,-27.097 60.525,-60.525c0,-33.427 -27.097,-60.526 -60.525,-60.526c-33.426,0 -60.525,27.099 -60.525,60.526c0,33.428 27.099,60.525 60.525,60.525z" fill-opacity="0" fill="#ffffff" stroke-linejoin="miter" stroke-linecap="butt" stroke-opacity="1" stroke="#ffffff" stroke-miterlimit="50" stroke-width="8"></path></g></g></svg>
