<?xml version="1.0" encoding="UTF-8"?>
<svg id="SVGDoc" width="322" height="322" xmlns="http://www.w3.org/2000/svg" version="1.1" xmlns:xlink="http://www.w3.org/1999/xlink" xmlns:avocode="https://avocode.com/" viewBox="0 0 322 322"><g><g><path d="M298.6221,285.3438v0l-18.827,-66.477v0l15.629,-13.397c3.993,-3.423 4.827,-9.121 1.864,-12.728l-8.779,-10.684c-2.963,-3.607 -8.602,-3.756 -12.594,-0.333l-5.343,4.58v0l-6.917,-24.422v0l17.344,-14.868c3.992,-3.422 4.827,-9.121 1.864,-12.727l-8.779,-10.685c-2.963,-3.607 -8.602,-3.756 -12.594,-0.333l-7.057,6.05v0l-4.825,-17.033c22.141,-22.225 40.857,-41.607 50.482,-52.458c30.265,-34.122 20.564,-56.187 19.953,-57.484l0.016,-0.016v0c0,0 -0.022,-0.01 -0.032,-0.015c-0.005,-0.011 -0.015,-0.032 -0.015,-0.032v0l-0.016,0.017c-1.298,-0.612 -23.362,-10.313 -57.484,19.952c-10.851,9.625 -30.233,28.341 -52.458,50.482l-17.033,-4.824v0l6.05,-7.058c3.423,-3.992 3.274,-9.631 -0.333,-12.594l-10.685,-8.779c-3.607,-2.963 -9.305,-2.129 -12.727,1.864l-14.868,17.344v0l-24.422,-6.917v0l4.58,-5.343c3.423,-3.993 3.274,-9.631 -0.333,-12.594l-10.685,-8.78c-3.606,-2.962 -9.305,-2.128 -12.727,1.865l-13.398,15.629v0l-66.476,-18.827c-4.096,-1.16 -8.793,0.413 -11.836,3.962l-6.222,7.258v0l114.456,72.331c2.425,1.532 4.565,3.474 6.324,5.739l13.562,17.46c-33.022,34.278 -62.434,66.179 -71.649,79.183l-63.675,-11.577c-3.891,-0.707 -8.118,0.91 -10.918,4.176l-6.698,7.814v0l58.346,38.594c-19.21,24.287 -21.92,36.063 -21.92,36.063v0c0,0 11.862,-2.79 36.25,-22.107l39.259,59.385v0l7.814,-6.698c3.266,-2.8 4.883,-7.027 4.176,-10.918l-11.577,-63.676c13.004,-9.215 44.904,-38.627 79.183,-71.648l17.46,13.562c2.265,1.759 4.206,3.899 5.738,6.324l72.332,114.456v0l7.257,-6.222c3.55,-3.043 5.123,-7.74 3.963,-11.836z" fill="#0a4c98" fill-opacity="1"></path></g></g></svg>