<svg xmlns="http://www.w3.org/2000/svg" width="522" height="650" viewBox="0 0 522 650"><g><g><path d="M421.305 449.17c-25.716 0-49.163 9.684-66.922 25.589L193.85 362.334A100.034 100.034 0 0 0 201.055 325c0-13.2-2.573-25.79-7.204-37.334l160.532-112.424c17.759 15.905 41.206 25.588 66.922 25.588 55.427 0 100.36-44.932 100.36-100.36 0-55.427-44.933-100.36-100.36-100.36-55.428 0-100.36 44.933-100.36 100.36 0 13.2 2.574 25.79 7.205 37.334L167.618 250.229c-17.76-15.905-41.206-25.59-66.922-25.59C45.268 224.64.336 269.574.336 325c0 55.428 44.932 100.36 100.36 100.36 25.716 0 49.163-9.682 66.922-25.587L328.15 512.195a100.034 100.034 0 0 0-7.204 37.334c0 55.428 44.93 100.36 100.359 100.36 55.427 0 100.36-44.932 100.36-100.36 0-55.426-44.933-100.36-100.36-100.36z"/></g></g></svg>