<svg xmlns="http://www.w3.org/2000/svg" width="500" height="478" viewBox="0 0 500 478"><g><g><g><path fill="#faa918" d="M261.147 7.556l67.625 137.022a12.43 12.43 0 0 0 9.359 6.8l151.213 21.973c10.195 1.48 14.266 14.01 6.888 21.202L386.813 301.21a12.425 12.425 0 0 0-3.574 11.002l25.83 150.603c1.741 10.154-8.917 17.897-18.036 13.103l-135.249-71.104a12.43 12.43 0 0 0-11.569 0l-135.249 71.104c-9.119 4.794-19.778-2.95-18.036-13.103l25.831-150.603a12.433 12.433 0 0 0-3.575-11.002L3.767 194.553c-7.378-7.191-3.307-19.721 6.89-21.202l151.212-21.973a12.43 12.43 0 0 0 9.36-6.8L238.852 7.556c4.56-9.24 17.733-9.24 22.293 0z"/></g></g></g></svg>