<svg xmlns="http://www.w3.org/2000/svg" width="500" height="478" viewBox="0 0 500 478"><g><g><g><path fill="#dbdad9" d="M496.232 194.553c7.378-7.191 3.307-19.721-6.889-21.202L338.13 151.378a12.43 12.43 0 0 1-9.359-6.8L261.146 7.556c-2.279-4.62-6.713-6.93-11.146-6.93v402.759c1.986 0 3.973.477 5.784 1.429l135.25 71.104c9.118 4.794 19.776-2.95 18.035-13.103l-25.83-150.603a12.425 12.425 0 0 1 3.574-11.002z"/></g><g><path fill="#faa918" d="M238.853 7.556l-67.625 137.022a12.43 12.43 0 0 1-9.359 6.8L10.656 173.35C.46 174.83-3.61 187.36 3.767 194.553l109.42 106.657a12.433 12.433 0 0 1 3.574 11.002l-25.83 150.603c-1.743 10.154 8.916 17.897 18.035 13.103l135.25-71.104a12.427 12.427 0 0 1 5.783-1.43V.628c-4.433 0-8.866 2.31-11.146 6.929z"/></g></g></g></svg>