<?xml version="1.0" encoding="UTF-8"?>
<svg id="SVGDoc" width="1196" height="1120" xmlns="http://www.w3.org/2000/svg" version="1.1" xmlns:xlink="http://www.w3.org/1999/xlink" xmlns:avocode="https://avocode.com/" viewBox="0 0 1196 1120"><g><g><path d="M1191.5803,424.1031c5.285,16.411 5.511,33.675 0.656,49.925c-5.313,17.783 -16.349,33.02 -31.912,44.065l-265.445,188.363c-1.351,0.958 -1.919,2.722 -1.383,4.288l102,297.857c6.122,17.88 6.23,36.536 0.312,53.952c-5.415,15.935 -15.497,29.798 -29.156,40.089c-13.658,10.29 -29.764,16.157 -46.576,16.965c-1.327,0.065 -2.655,0.096 -3.978,0.096c-16.972,0.001 -33.416,-5.242 -47.793,-15.277l-272.339,-190.096c-1.301,-0.908 -3.045,-0.9 -4.338,0.021l-264.925,188.829c-15.386,10.966 -33.235,16.386 -51.608,15.692c-16.816,-0.642 -32.977,-6.345 -46.736,-16.495c-13.76,-10.151 -23.979,-23.908 -29.556,-39.785c-6.093,-17.352 -6.176,-36.004 -0.241,-53.941l101.017,-305.216c0.52,-1.57 -0.067,-3.328 -1.426,-4.272l-261.808,-181.939c-15.673,-10.892 -26.858,-26.021 -32.345,-43.752c-5.015,-16.204 -4.956,-33.47 0.17,-49.933c5.125,-16.463 14.878,-30.711 28.204,-41.204c14.583,-11.483 32.379,-17.589 51.465,-17.66l331.958,-1.221c1.623,-0.005 3.055,-1.046 3.561,-2.589l99.491,-302.941c11.435,-34.819 42.505,-57.439 79.154,-57.626c0.152,-0.001 0.306,-0.002 0.458,-0.002c36.453,0 67.539,22.26 79.281,56.817l104.75,308.303c0.519,1.53 1.95,2.554 3.563,2.554h0.024l325.266,-1.952c19.105,-0.151 36.939,5.819 51.632,17.159c13.427,10.362 23.317,24.514 28.603,40.926zM1114.0273,452.8501c1.105,-0.785 2.25,-1.597 1.404,-4.223c-0.845,-2.627 -2.252,-2.614 -3.605,-2.61l-325.269,1.951c-0.167,0.001 -0.341,0.002 -0.508,0.002c-35.915,0.002 -67.739,-22.777 -79.305,-56.817l-104.749,-308.303c-0.407,-1.198 -0.868,-2.554 -3.543,-2.554c-0.014,0 -0.027,0 -0.04,0.001c-2.711,0.013 -3.16,1.382 -3.557,2.589l-99.491,302.941c-11.276,34.336 -43.134,57.494 -79.274,57.627l-331.958,1.221c-1.355,0.005 -2.759,0.01 -3.579,2.645c-0.82,2.635 0.332,3.435 1.446,4.21l261.807,181.939c14.95,10.388 25.899,25.01 31.659,42.281c5.761,17.271 5.783,35.537 0.062,52.822l-101.016,305.215c-0.402,1.215 -0.857,2.592 1.339,4.211c2.196,1.62 3.377,0.779 4.419,0.037l264.926,-188.829c14.505,-10.339 31.563,-15.516 48.621,-15.516c16.784,0 33.568,5.009 47.94,15.041l272.339,190.095c1.049,0.732 2.239,1.563 4.419,-0.08c2.181,-1.644 1.71,-3.016 1.296,-4.227l-101.999,-297.856c-5.901,-17.231 -6.066,-35.503 -0.478,-52.839c5.589,-17.335 16.394,-32.07 31.249,-42.611z" fill="#faa918" fill-opacity="1"></path></g></g></svg>