<?xml version="1.0" encoding="UTF-8"?>
<svg id="SVGDoc" width="500" height="478" xmlns="http://www.w3.org/2000/svg" version="1.1" xmlns:xlink="http://www.w3.org/1999/xlink" viewBox="0 0 500 478"><g><g><path d="M261.1465,7.5557v0l67.625,137.022c1.811,3.669 5.311,6.212 9.359,6.8l151.213,21.973c10.196,1.481 14.267,14.011 6.889,21.202l-109.419,106.657c-2.93,2.856 -4.267,6.97 -3.574,11.002l25.83,150.603c1.741,10.154 -8.917,17.897 -18.036,13.103l-135.249,-71.104c-3.621,-1.904 -7.948,-1.904 -11.569,0l-135.249,71.104c-9.119,4.794 -19.778,-2.949 -18.036,-13.103l25.831,-150.603c0.691,-4.032 -0.646,-8.146 -3.575,-11.002l-109.419,-106.657c-7.378,-7.191 -3.307,-19.721 6.889,-21.202l151.213,-21.973c4.048,-0.588 7.548,-3.131 9.359,-6.8l67.625,-137.022c4.56,-9.239 17.733,-9.239 22.293,0z" fill="#faa918" fill-opacity="1"></path></g></g></svg>