<?xml version="1.0" encoding="UTF-8"?>
<svg id="SVGDoc" width="76" height="164" xmlns="http://www.w3.org/2000/svg" version="1.1" xmlns:xlink="http://www.w3.org/1999/xlink" xmlns:avocode="https://avocode.com/" viewBox="0 0 76 164"><g><g><path d="M38.1232,5.916c-25.56,0 -32.177,4.355 -32.177,21.174c0,17.17 15.984,41.808 26.756,50.04c1.443,1.103 2.289,2.815 2.289,4.632c0.002,1.816 -0.844,3.525 -2.289,4.631c-10.772,8.233 -26.756,32.874 -26.756,50.044c0,16.817 6.617,21.169 32.177,21.169c25.558,0 32.175,-4.352 32.175,-21.169c0,-17.236 -16.404,-41.566 -27.257,-50.093c-1.404,-1.103 -2.226,-2.793 -2.224,-4.582c0,-1.789 0.822,-3.478 2.228,-4.584c10.849,-8.523 27.253,-32.848 27.253,-50.088c0,-16.819 -6.617,-21.174 -32.175,-21.174zM38.1232,0.089c22.865,0 38.004,2.985 38.004,27.001c0,19.445 -17.766,45.467 -29.483,54.672c11.714,9.208 29.483,35.227 29.483,54.675c0,24.016 -15.139,26.997 -38.004,26.997c-22.867,0 -38.005,-2.981 -38.005,-26.997c0,-19.448 17.002,-45.47 29.046,-54.675c-12.044,-9.202 -29.046,-35.227 -29.046,-54.672c0,-24.016 15.138,-27.001 38.005,-27.001zM66.8262,37.869c-17.651,37.806 -27.639,36.777 -28.191,39.835v52.962l23.77,20.614h-0.105c0.049,0.087 0.105,0.172 0.105,0.258c0,1.921 -12.747,3.478 -24.282,3.478c-11.534,0 -24.283,-1.557 -24.283,-3.478c0,-0.066 0.051,-0.132 0.081,-0.198h-0.036l0.056,-0.054c0.103,-0.175 0.302,-0.351 0.606,-0.517l23.084,-19.831v-53.187c-0.31,-2.921 -11.23,-2.014 -28.212,-39.882c-0.044,-0.06 -0.072,-0.121 -0.072,-0.181c0,-2.308 12.883,-3.157 28.776,-3.157c15.893,0 28.776,1.011 28.776,3.157c0,0.059 -0.029,0.12 -0.073,0.181z" fill="#254a9c" fill-opacity="1"></path></g></g></svg>