<?xml version="1.0" encoding="UTF-8"?>
<svg width="30px" height="21px" viewBox="0 0 30 21" version="1.1" xmlns="http://www.w3.org/2000/svg" xmlns:xlink="http://www.w3.org/1999/xlink">
    <!-- Generator: Sketch 46.2 (44496) - http://www.bohemiancoding.com/sketch -->
    <title>bed</title>
    <desc>Created with Sketch.</desc>
    <defs></defs>
    <g id="mobile" stroke="none" stroke-width="1" fill="none" fill-rule="evenodd">
        <g id="Ansultning" transform="translate(-25.000000, -217.000000)" fill-rule="nonzero" fill="#004B9C">
            <g id="icon-menu" transform="translate(25.000000, 212.000000)">
                <g id="bed" transform="translate(0.000000, 5.000000)">
                    <path d="M8.16066812,10.9233731 C10.4116737,10.9233731 12.2410022,9.09404454 12.2410022,6.843039 C12.2410022,4.59203346 10.4116737,2.76270494 8.16066812,2.76270494 C5.90966258,2.76270494 4.08033406,4.59203346 4.08033406,6.843039 C4.08033406,9.09404454 5.90966258,10.9233731 8.16066812,10.9233731 Z" id="Shape"></path>
                    <path d="M24.4820044,2.76270494 L13.6010923,2.76270494 L13.6010923,12.2834632 L2.72024396,12.2834632 L2.72024396,0.0424609763 L0,0.0424609763 L0,20.4441313 L2.72024396,20.4441313 L2.72024396,16.3637972 L27.2022483,16.3637972 L27.2022483,20.4441313 L29.9224923,20.4441313 L29.9224923,8.2031291 C29.9224285,5.19732551 27.4878717,2.76270494 24.4820044,2.76270494 Z" id="Shape"></path>
                </g>
            </g>
        </g>
    </g>
</svg>