<?xml version="1.0" encoding="UTF-8"?>
<svg width="14px" height="28px" viewBox="0 0 14 28" version="1.1" xmlns="http://www.w3.org/2000/svg" xmlns:xlink="http://www.w3.org/1999/xlink">
    <!-- Generator: Sketch 46.2 (44496) - http://www.bohemiancoding.com/sketch -->
    <title>do-not-disturb</title>
    <desc>Created with Sketch.</desc>
    <defs></defs>
    <g id="mobile" stroke="none" stroke-width="1" fill="none" fill-rule="evenodd">
        <g id="Ansultning" transform="translate(-280.000000, -213.000000)" fill-rule="nonzero" fill="#004B9C">
            <g id="icon-menu" transform="translate(25.000000, 212.000000)">
                <g id="do-not-disturb" transform="translate(255.000000, 1.000000)">
                    <path d="M13.6731613,16.2077419 L13.6731613,26.9856774 C13.6731613,27.5202581 13.239871,27.9534194 12.7054194,27.9534194 L1.05458065,27.9534194 C0.520129032,27.9534194 0.0868387097,27.5202581 0.0868387097,26.9856774 L0.0868387097,6.90425806 C0.0868387097,3.22374194 2.91354839,0.195096774 6.52206452,0.00916129032 C6.64090323,0.00309677419 6.76141935,0 6.88012903,0 C10.1104516,0 12.8971613,2.28232258 13.5363871,5.43806452 C13.5590968,5.5203871 13.5712258,5.60696774 13.5712258,5.6963871 C13.5712258,6.23096774 13.1379355,6.66412903 12.6034839,6.66412903 C12.6025806,6.66412903 12.6016774,6.66412903 12.6009032,6.66412903 L10.1525161,6.66412903 C9.7483871,6.66412903 9.38683871,6.41303226 9.24567742,6.03432258 C8.86748387,5.01922581 7.8723871,4.34941935 6.78387097,4.38916129 C5.4923871,4.43664516 4.42606452,5.48374194 4.3563871,6.77290323 C4.31832258,7.4763871 4.56270968,8.14412903 5.04477419,8.65277419 C5.52180645,9.15625806 6.1643871,9.43612903 6.85664516,9.44232258 C6.87354839,9.44154839 6.89070968,9.44116129 6.90774194,9.44103226 C6.92645161,9.44103226 6.94516129,9.44154839 6.96374194,9.44270968 C10.6685161,9.47277419 13.6731613,12.496 13.6731613,16.2077419 Z" id="Shape"></path>
                </g>
            </g>
        </g>
    </g>
</svg>