<?xml version="1.0" encoding="UTF-8"?>
<svg width="21px" height="30px" viewBox="0 0 21 30" version="1.1" xmlns="http://www.w3.org/2000/svg" xmlns:xlink="http://www.w3.org/1999/xlink">
    <!-- Generator: Sketch 46.2 (44496) - http://www.bohemiancoding.com/sketch -->
    <title>004-facebook-placeholder-for-locate-places-on-maps</title>
    <desc>Created with Sketch.</desc>
    <defs></defs>
    <g id="mobile" stroke="none" stroke-width="1" fill="none" fill-rule="evenodd">
        <g id="Ansultning" transform="translate(-92.000000, -212.000000)" fill-rule="nonzero" fill="#004B9C">
            <g id="icon-menu" transform="translate(25.000000, 212.000000)">
                <g id="004-facebook-placeholder-for-locate-places-on-maps" transform="translate(67.000000, 0.000000)">
                    <path d="M20.1486693,7.43237676 C20.0423745,7.03399676 19.8265216,6.60951169 19.6668364,6.23786161 C17.7560287,1.64573016 13.5809535,0 10.2097894,0 C5.69687572,0 0.726429067,3.02610507 0.0628326776,9.26361953 L0.0628326776,10.5379773 C0.0628326776,10.5911595 0.0811617681,11.0688961 0.107197408,11.3078685 C0.479194631,14.2805138 2.82483221,17.4397825 4.57664892,20.4124277 C6.46135154,23.5973154 8.41700995,26.7303402 10.3545476,29.8620458 C11.549271,27.8183522 12.7396899,25.7477899 13.9071974,23.7570007 C14.2253876,23.1727609 14.5947466,22.5888683 14.913284,22.0312196 C15.1255959,21.6599167 15.5311965,21.2886137 15.7165008,20.9431382 C17.601134,17.4926174 20.6346679,14.0154362 20.6346679,10.59109 L20.6346679,9.18433233 C20.6347373,8.81309882 20.1745661,7.51242768 20.1486693,7.43237676 Z M10.2924092,13.8296459 C8.96584124,13.8296459 7.51381625,13.1663272 6.79710715,11.3344596 C6.69032631,11.0428604 6.69893543,10.4584818 6.69893543,10.4049526 L6.69893543,9.58208748 C6.69893543,7.24679472 8.68180977,6.18481833 10.4068271,6.18481833 C12.5305022,6.18481833 14.1729692,7.88386947 14.1729692,10.0075445 C14.1729692,12.1311502 12.4160842,13.8296459 10.2924092,13.8296459 Z" id="Facebook_Places"></path>
                </g>
            </g>
        </g>
    </g>
</svg>