<?xml version="1.0" encoding="UTF-8"?>
<svg width="27px" height="27px" viewBox="0 0 27 27" version="1.1" xmlns="http://www.w3.org/2000/svg" xmlns:xlink="http://www.w3.org/1999/xlink">
    <!-- Generator: Sketch 46.2 (44496) - http://www.bohemiancoding.com/sketch -->
    <title>parking</title>
    <desc>Created with Sketch.</desc>
    <defs></defs>
    <g id="mobile" stroke="none" stroke-width="1" fill="none" fill-rule="evenodd">
        <g id="Ansultning" transform="translate(-216.000000, -214.000000)" fill-rule="nonzero" fill="#004B9C">
            <g id="icon-menu" transform="translate(25.000000, 212.000000)">
                <g id="parking" transform="translate(191.000000, 2.000000)">
                    <path d="M25.5685601,5.49898167e-05 L1.39498167,5.49898167e-05 C0.624684318,5.49898167e-05 0,0.624354379 0,1.39465173 L0,25.5683951 C0,26.3387475 0.624684318,26.9629919 1.39498167,26.9629919 L25.5686151,26.9629919 C26.3384175,26.9629919 26.9631568,26.3387475 26.9631568,25.5683951 L26.9631568,1.39465173 C26.9631018,0.624354379 26.3383625,5.49898167e-05 25.5685601,5.49898167e-05 Z M24.1736884,24.1737434 L2.78941344,24.1737434 L2.78941344,2.78935845 L24.1736884,2.78935845 L24.1736884,24.1737434 Z" id="XMLID_347_"></path>
                    <path d="M9.13606314,22.0687332 L11.0309022,22.0687332 C11.5619939,22.0687332 11.9927291,21.6382179 11.9927291,21.1066314 L11.9927291,15.9726171 C12.3466986,16.0238126 12.8023992,16.048778 13.3089654,16.048778 C15.584554,16.048778 17.5331731,15.492611 18.8469898,14.2529206 C19.8581976,13.2922485 20.4157393,11.8748859 20.4157393,10.206 C20.4157393,8.53678411 19.683,7.12074134 18.5934318,6.25998574 C17.4567373,5.34984929 15.7617862,4.89436864 13.3824318,4.89436864 C11.5403829,4.89436864 10.1165866,4.98702648 9.01607536,5.12510591 C8.53496945,5.18548473 8.17478615,5.5949389 8.17478615,6.07939919 L8.17478615,21.1066314 C8.17473116,21.6382729 8.60502648,22.0687332 9.13606314,22.0687332 Z M11.9926741,7.95482688 C12.2711426,7.87855601 12.8023442,7.80365988 13.5868289,7.80365988 C15.5081181,7.80365988 16.5957617,8.73975153 16.5957617,10.3068513 C16.5957617,12.0525031 15.3310509,13.089336 13.2819654,13.089336 C12.7259084,13.089336 12.3221181,13.0643157 11.9926741,12.9880998 L11.9926741,7.95482688 L11.9926741,7.95482688 Z" id="XMLID_344_"></path>
                </g>
            </g>
        </g>
    </g>
</svg>