<?xml version="1.0" encoding="UTF-8"?>
<svg width="30px" height="25px" viewBox="0 0 30 25" version="1.1" xmlns="http://www.w3.org/2000/svg" xmlns:xlink="http://www.w3.org/1999/xlink">
    <!-- Generator: Sketch 46.2 (44496) - http://www.bohemiancoding.com/sketch -->
    <title>taxi-sign</title>
    <desc>Created with Sketch.</desc>
    <defs></defs>
    <g id="mobile" stroke="none" stroke-width="1" fill="none" fill-rule="evenodd">
        <g id="Ansultning" transform="translate(-150.000000, -215.000000)" fill-rule="nonzero" fill="#004B9C">
            <g id="icon-menu" transform="translate(25.000000, 212.000000)">
                <g id="taxi-sign" transform="translate(125.000000, 3.000000)">
                    <path d="M30,12.5290686 L30,18.2428431 C30,18.6379412 29.6796078,18.9583333 29.2845098,18.9583333 L24.2862255,18.9583333 L24.2862255,23.9566176 C24.2862255,24.3517157 23.9658333,24.6721078 23.5707353,24.6721078 L17.8569608,24.6721078 C17.4618627,24.6721078 17.1414706,24.3517157 17.1414706,23.9566176 L17.1414706,18.9583333 L12.8584804,18.9583333 L12.8584804,23.9566176 C12.8584804,24.3517157 12.5380882,24.6721078 12.1429902,24.6721078 L6.42926471,24.6721078 C6.03416667,24.6721078 5.71377451,24.3517157 5.71377451,23.9566176 L5.71377451,18.9583333 L0.715490196,18.9583333 C0.320392157,18.9583333 0,18.6379412 0,18.2428922 L0,12.5290686 C0,12.1339706 0.320392157,11.8135784 0.715490196,11.8135784 L6.42926471,11.8135784 C6.82436275,11.8135784 7.1447549,12.1339706 7.1447549,12.5290686 L7.1447549,17.5273529 L11.427598,17.5273529 L11.427598,12.5290686 C11.427598,12.1339706 11.7479902,11.8135784 12.1430882,11.8135784 L17.8568627,11.8135784 C18.2519608,11.8135784 18.5723529,12.1339706 18.5723529,12.5290686 L18.5723529,17.5273529 L22.8551961,17.5273529 L22.8551961,12.5290686 C22.8551961,12.1339706 23.1755882,11.8135784 23.5706863,11.8135784 L29.2844608,11.8135784 C29.6796078,11.8136275 30,12.1340196 30,12.5290686 Z M3.73220588,1.465 L5.76387255,1.465 L5.76387255,8.34656863 C5.76387255,8.74166667 6.08426471,9.06205882 6.47936275,9.06205882 C6.87446078,9.06205882 7.19485294,8.74166667 7.19485294,8.34656863 L7.19485294,1.465 L9.22651961,1.465 C9.62161765,1.465 9.9420098,1.14460784 9.9420098,0.749509804 C9.9420098,0.354411765 9.62161765,0.0340196078 9.22651961,0.0340196078 L3.73220588,0.0340196078 C3.33710784,0.0340196078 3.01671569,0.354411765 3.01671569,0.749509804 C3.01671569,1.14460784 3.33696078,1.465 3.73220588,1.465 Z M11.7416667,0.351421569 C11.7556863,0.330539216 11.7728431,0.311911765 11.7890196,0.292598039 C11.802598,0.276421569 11.8147549,0.258970588 11.8295098,0.244215686 C11.8462745,0.22745098 11.8658333,0.213431373 11.8843137,0.198284314 C11.9017647,0.184117647 11.9180882,0.168676471 11.9366667,0.156078431 C11.9542647,0.144362745 11.9740196,0.135343137 11.9927451,0.12504902 C12.0154902,0.112598039 12.0376961,0.0994117647 12.0615686,0.0895588235 C12.0654412,0.0879901961 12.0685784,0.0855392157 12.0723039,0.0839705882 C12.0887745,0.0775490196 12.1057843,0.0749509804 12.122402,0.0698039216 C12.1470098,0.0620588235 12.1711765,0.0539215686 12.1965196,0.0489215686 C12.2194118,0.0443627451 12.2421569,0.0428921569 12.265049,0.0406372549 C12.2883824,0.0383333333 12.3115686,0.0353431373 12.3351471,0.0353431373 C12.3594608,0.0353431373 12.3830882,0.0383333333 12.4071078,0.0407843137 C12.4294118,0.0430882353 12.4514706,0.0445098039 12.4736275,0.0489215686 C12.499951,0.0540686275 12.525,0.0626470588 12.5504902,0.0706862745 C12.5663725,0.0756862745 12.582402,0.0779901961 12.5981373,0.0841176471 C12.6018627,0.0855392157 12.6047059,0.0879901961 12.6084314,0.0894117647 C12.6337745,0.0998529412 12.6572059,0.11372549 12.6811275,0.127058824 C12.6985784,0.136813725 12.7170588,0.14495098 12.7333333,0.155980392 C12.7533824,0.169264706 12.7709804,0.185735294 12.7895588,0.201176471 C12.8067157,0.215490196 12.8251961,0.228382353 12.8407843,0.244117647 C12.8562255,0.259558824 12.8689706,0.277745098 12.8831373,0.294607843 C12.8987255,0.313333333 12.9153431,0.33122549 12.9289216,0.351421569 C12.9398039,0.367745098 12.9480882,0.386176471 12.9576961,0.403627451 C12.9709804,0.4275 12.9847549,0.451127451 12.9953431,0.476470588 C12.9969118,0.48004902 12.9992157,0.483039216 13.0006373,0.486764706 L16.0022059,8.08382353 C16.147451,8.45127451 15.9671569,8.86696078 15.5996569,9.01220588 C15.5133824,9.04627451 15.4243627,9.06245098 15.3369118,9.06245098 C15.0518627,9.06245098 14.782402,8.89088235 14.6712255,8.60970588 L13.8312745,6.48372549 L10.8391667,6.48372549 L9.99921569,8.60970588 C9.88818627,8.89088235 9.61857843,9.06245098 9.33352941,9.06245098 C9.24607843,9.06245098 9.15710784,9.04627451 9.07078431,9.01220588 C8.70333333,8.86696078 8.52303922,8.45142157 8.66823529,8.08382353 L11.6698039,0.486764706 C11.6712255,0.483039216 11.6736765,0.480196078 11.675098,0.476470588 C11.6856863,0.450980392 11.6995588,0.427254902 11.7130392,0.403186275 C11.7227451,0.385784314 11.7307843,0.367598039 11.7416667,0.351421569 Z M13.2661765,5.05240196 L12.3354902,2.69661765 L11.4046569,5.05240196 L13.2661765,5.05240196 Z M17.3359314,8.93539216 C17.46,9.02098039 17.6013725,9.0620098 17.7414706,9.0620098 C17.9687255,9.0620098 18.1922059,8.95397059 18.3310294,8.75264706 L20.3621078,5.80803922 L22.3931863,8.75264706 C22.5320098,8.95397059 22.7554902,9.0620098 22.9827451,9.0620098 C23.1228431,9.0620098 23.2643627,9.02093137 23.3884314,8.93539216 C23.7136765,8.71102941 23.7955392,8.26544118 23.5711765,7.94014706 L21.2314216,4.54794118 L23.5711765,1.15558824 C23.7955392,0.830343137 23.7136765,0.384754902 23.3884314,0.160343137 C23.0631863,-0.0640196078 22.617598,0.0178431373 22.3931863,0.343088235 L20.3621078,3.28769608 L18.3310294,0.343137255 C18.1066667,0.0178921569 17.6612255,-0.0641176471 17.3357843,0.160392157 C17.0105392,0.384754902 16.9286765,0.830343137 17.1530392,1.15563725 L19.4927941,4.5479902 L17.1530392,7.94019608 C16.9289706,8.26558824 17.0106863,8.71102941 17.3359314,8.93539216 Z M25.4172549,9.06191176 C25.8123529,9.06191176 26.1327451,8.74151961 26.1327451,8.34642157 L26.1327451,0.749509804 C26.1327451,0.354411765 25.8123529,0.0340196078 25.4172549,0.0340196078 C25.0221569,0.0340196078 24.7017647,0.354411765 24.7017647,0.749509804 L24.7017647,8.34656863 C24.7017647,8.74166667 25.0221569,9.06191176 25.4172549,9.06191176 Z" id="Shape"></path>
                </g>
            </g>
        </g>
    </g>
</svg>