<svg xmlns="http://www.w3.org/2000/svg" width="84" height="63" viewBox="0 0 84 63">
  <path fill="#FA0" d="M56.0124,0 L9.0384,0 C4.0552,0 0,4.0468 0,9.022 L0,11.2 L0,22.4 L0,26.6 L0,37.8 L0,46.978 C0,51.9532 4.0552,56 9.0384,56 L9.9264,56 C10.596,59.9664 14.0456,63 18.2,63 C21.12,63 23.6944,61.5008 25.2,59.2336 C26.7056,61.5008 29.2796,63 32.2,63 C36.354,63 39.804,59.9664 40.4736,56 L57.5264,56 C58.196,59.9664 61.6456,63 65.8,63 C69.9544,63 73.404,59.9664 74.0736,56 L82.6,56 C83.3736,56 84,55.3736 84,54.6 L84,43.4 L84,40.6 L84,28 C84,12.5604 71.4452,0 56.0124,0 Z M2.8,12.6 L18.2,12.6 L18.2,21 L2.8,21 L2.8,12.6 Z M2.8,28 L18.2,28 L18.2,36.4 L2.8,36.4 L2.8,28 Z M18.2,60.2 C15.1116,60.2 12.6,57.6884 12.6,54.6 C12.6,51.5116 15.1116,49 18.2,49 C21.2884,49 23.8,51.5116 23.8,54.6 C23.8,57.6884 21.2884,60.2 18.2,60.2 Z M32.2,60.2 C29.1116,60.2 26.6,57.6884 26.6,54.6 C26.6,51.5116 29.1116,49 32.2,49 C35.2884,49 37.8,51.5116 37.8,54.6 C37.8,57.6884 35.2884,60.2 32.2,60.2 Z M65.8,60.2 C62.7116,60.2 60.2,57.6884 60.2,54.6 C60.2,51.5116 62.7116,49 65.8,49 C68.8884,49 71.4,51.5116 71.4,54.6 C71.4,57.6884 68.8884,60.2 65.8,60.2 Z M81.2,53.2 L74.084,53.2 C74.0784,53.1676 74.0652,53.1384 74.0592,53.1064 C73.9824,52.6804 73.8724,52.2664 73.7336,51.8652 C73.708,51.7916 73.6812,51.7196 73.6536,51.6468 C73.5028,51.2468 73.3264,50.86 73.1188,50.4912 C73.0888,50.4376 73.0548,50.3872 73.0236,50.3344 C72.798,49.9536 72.5504,49.5876 72.2696,49.2488 C72.262,49.2396 72.2532,49.2316 72.2456,49.222 C71.9632,48.8844 71.6516,48.5736 71.3204,48.284 C71.2832,48.2512 71.2488,48.2164 71.2112,48.1844 C70.8856,47.9092 70.536,47.6636 70.1712,47.44 C70.1096,47.4024 70.0496,47.364 69.9868,47.328 C69.6224,47.1172 69.2416,46.9344 68.8452,46.7796 C68.776,46.7524 68.706,46.7284 68.636,46.7028 C68.2292,46.5564 67.8104,46.436 67.3776,46.3532 C67.3224,46.3428 67.266,46.3372 67.2104,46.3276 C66.7508,46.2496 66.282,46.1996 65.8004,46.1996 C65.3188,46.1996 64.85,46.2496 64.3904,46.3276 C64.3348,46.3372 64.2784,46.3424 64.2232,46.3532 C63.79,46.4356 63.3716,46.556 62.9644,46.7028 C62.8944,46.728 62.8248,46.7524 62.756,46.7792 C62.36,46.934 61.9788,47.1172 61.614,47.3276 C61.5516,47.3636 61.4912,47.402 61.4296,47.4396 C61.0648,47.6632 60.7152,47.9092 60.3896,48.184 C60.352,48.216 60.3176,48.2508 60.2804,48.2836 C59.9492,48.5732 59.6376,48.884 59.3552,49.2216 C59.3476,49.2308 59.3388,49.2388 59.3312,49.2484 C59.05,49.5876 58.8024,49.954 58.5764,50.3348 C58.5452,50.3872 58.512,50.4372 58.482,50.4904 C58.274,50.8592 58.098,51.2464 57.9468,51.6464 C57.9192,51.7192 57.8924,51.7912 57.8668,51.8648 C57.728,52.266 57.618,52.68 57.5412,53.106 C57.5352,53.1384 57.522,53.1676 57.5164,53.2 L40.484,53.2 C40.4784,53.1676 40.4652,53.1384 40.4592,53.106 C40.3824,52.68 40.2724,52.266 40.1336,51.8648 C40.108,51.7912 40.0812,51.7192 40.0536,51.6464 C39.9028,51.2464 39.7264,50.8596 39.5188,50.4908 C39.4888,50.4372 39.4548,50.3868 39.4236,50.334 C39.198,49.9532 38.9504,49.5872 38.6696,49.2484 C38.662,49.2392 38.6532,49.2312 38.6456,49.222 C38.3632,48.8844 38.0516,48.5736 37.7204,48.284 C37.6832,48.2512 37.6488,48.2164 37.6112,48.1844 C37.2856,47.9092 36.936,47.6636 36.5708,47.44 C36.5092,47.4024 36.4492,47.364 36.3864,47.328 C36.022,47.1172 35.6412,46.9344 35.2448,46.7796 C35.1756,46.7524 35.1056,46.7284 35.0356,46.7028 C34.6288,46.5564 34.21,46.436 33.7772,46.3532 C33.722,46.3428 33.6656,46.3372 33.61,46.3276 C33.1504,46.2496 32.6816,46.1996 32.2,46.1996 C31.8664,46.1996 31.5392,46.2244 31.216,46.2624 C31.1152,46.2744 31.0168,46.2928 30.9172,46.308 C30.6932,46.3424 30.4724,46.384 30.2544,46.4364 C30.1464,46.462 30.0392,46.4892 29.9328,46.5192 C29.7152,46.5804 29.5024,46.6512 29.2924,46.7292 C29.2044,46.762 29.1148,46.7908 29.0284,46.826 C28.7392,46.9444 28.456,47.0756 28.1836,47.2244 C28.1512,47.242 28.1216,47.2636 28.0892,47.2816 C27.8496,47.4168 27.6176,47.5636 27.3932,47.7208 C27.3116,47.778 27.234,47.8396 27.1544,47.8996 C26.9816,48.03 26.814,48.166 26.652,48.3088 C26.5736,48.378 26.496,48.4476 26.4204,48.5196 C26.2544,48.6776 26.0964,48.8432 25.9436,49.014 C25.8884,49.0756 25.83,49.134 25.7768,49.1972 C25.5776,49.4336 25.3896,49.6804 25.2172,49.938 C25.2116,49.946 25.2052,49.9528 25.2,49.9604 C25.1948,49.9524 25.1884,49.9456 25.1828,49.9376 C25.01,49.68 24.8224,49.4336 24.6232,49.1968 C24.57,49.1336 24.5116,49.0752 24.4564,49.0136 C24.3036,48.8428 24.1456,48.6772 23.9796,48.5192 C23.904,48.4472 23.826,48.3776 23.748,48.3084 C23.586,48.1652 23.4184,48.0292 23.2456,47.8992 C23.166,47.8392 23.0884,47.778 23.0068,47.7204 C22.7824,47.5632 22.5504,47.4168 22.3108,47.2812 C22.2788,47.2632 22.2488,47.2416 22.2164,47.224 C21.944,47.0752 21.6612,46.944 21.3716,46.8256 C21.2852,46.79 21.1956,46.7612 21.1076,46.7288 C20.8976,46.6508 20.6848,46.58 20.4672,46.5188 C20.3608,46.4888 20.254,46.4616 20.1456,46.436 C19.9276,46.384 19.7068,46.3424 19.4828,46.3076 C19.3828,46.2924 19.2848,46.2736 19.184,46.262 C18.8604,46.2244 18.5332,46.1992 18.1996,46.1992 C17.718,46.1992 17.2492,46.2492 16.7896,46.3272 C16.734,46.3368 16.6776,46.342 16.6224,46.3528 C16.1892,46.4352 15.7708,46.5556 15.3636,46.7024 C15.2936,46.7276 15.224,46.752 15.1548,46.7788 C14.7588,46.9336 14.3776,47.1168 14.0128,47.3272 C13.9504,47.3632 13.89,47.4016 13.8284,47.4392 C13.4636,47.6628 13.114,47.9088 12.788,48.1836 C12.75,48.2156 12.716,48.2504 12.6788,48.2832 C12.3476,48.5728 12.036,48.8836 11.7536,49.2212 C11.746,49.2304 11.7372,49.2384 11.7296,49.248 C11.4484,49.5872 11.2008,49.9536 10.9748,50.3344 C10.9436,50.3868 10.9104,50.4368 10.8804,50.49 C10.6724,50.8588 10.4964,51.246 10.3452,51.646 C10.3176,51.7188 10.2908,51.7908 10.2652,51.8644 C10.1264,52.2656 10.0164,52.6796 9.9396,53.1056 C9.9336,53.138 9.9204,53.1672 9.9148,53.1992 L9.0372,53.1992 C5.5972,53.1992 2.7988,50.4076 2.7988,46.9772 L2.7988,39.2 L18.1988,39.2 L20.9988,39.2 L36.4,39.2 L39.2,39.2 L53.2,39.2 L56,39.2 L74.2,39.2 C74.9736,39.2 75.6,38.5736 75.6,37.8 L75.6,32.2 C75.6,28.3404 72.4636,25.2 68.6084,25.2 L56,25.2 L53.2,25.2 L39.2,25.2 L36.4,25.2 L21,25.2 L18.2,25.2 L2.8,25.2 L2.8,23.8 L18.2,23.8 L21,23.8 L36.4,23.8 L39.2,23.8 L53.2,23.8 L56,23.8 L74.2,23.8 C74.9736,23.8 75.6,23.1736 75.6,22.4 L75.6,16.8 C75.6,12.9404 72.4636,9.8 68.6084,9.8 L56,9.8 L53.2,9.8 L39.2,9.8 L36.4,9.8 L21,9.8 L18.2,9.8 L2.8,9.8 L2.8,9.022 C2.8,5.5916 5.5988,2.8 9.0384,2.8 L56.012,2.8 C69.9,2.8 81.1996,14.1052 81.1996,28 L81.1996,40.6 L74.1996,40.6 L74.1996,43.4 L81.2,43.4 L81.2,53.2 Z M21,36.4 L21,28 L36.4,28 L36.4,36.4 L21,36.4 Z M39.2,36.4 L39.2,28 L53.2,28 L53.2,36.4 L39.2,36.4 Z M56,36.4 L56,28 L68.6084,28 C70.9204,28 72.8,29.884 72.8,32.2 L72.8,36.4 L56,36.4 Z M21,21 L21,12.6 L36.4,12.6 L36.4,21 L21,21 Z M39.2,21 L39.2,12.6 L53.2,12.6 L53.2,21 L39.2,21 Z M56,21 L56,12.6 L68.6084,12.6 C70.9204,12.6 72.8,14.484 72.8,16.8 L72.8,21 L56,21 Z"/>
</svg>
