<svg xmlns="http://www.w3.org/2000/svg" width="64" height="65" viewBox="0 0 64 65">
  <g fill="#004B9C">
    <path d="M24.9590555 8.45486755L24.3110146 8.45486755C23.594645 7.42963044 22.4065911 6.79472365 21.1304862 6.79472365L17.3184582 6.79472365 13.056886.748355682C12.7411999.300919365 12.1612332 0 11.6130768 0L10.0438074 0C9.27399638 0 8.64784098.626003852 8.64784098 1.39534503L8.64784098 6.79459646 7.46958474 6.79459646 6.61643051 3.50699517C6.44630863 2.85072132 5.8304598 2.37454123 5.15226263 2.37454123L2.95378407 2.37454123C2.18410027 2.37454123 1.55781763 3.00041789 1.55781763 3.76988626L1.55781763 7.56279298C.612795041 8.26816018 0 9.39311021 0 10.6583451 0 12.7889458 1.73760986 14.522221 3.87335836 14.522221L8.64809547 14.522221 8.64809547 19.604655C8.64809547 20.3741233 9.27437811 21 10.0440619 21L11.6134585 21C12.1612332 21 12.7414544 20.6992078 13.0570133 20.2515171L17.0955311 14.522221 19.1554437 14.522221C19.7061449 14.522221 20.1526353 14.0759294 20.1526353 13.5254733 20.1526353 12.9750173 19.7061449 12.5287256 19.1554437 12.5287256L18.5007862 12.5287256 18.9026148 11.9585559C19.1806375 11.5642829 19.2236451 11.0919183 19.0177684 10.6952288 18.8118916 10.2985392 18.4009016 10.061721 17.9184018 10.061721L10.0441892 10.061721C9.27450535 10.061721 8.64822271 10.6877248 8.64822271 11.457066L8.64822271 12.5285984 3.87335836 12.5285984C2.83723086 12.5285984 1.99425596 11.6894328 1.99425596 10.6580908 1.99425596 9.62687598 2.83723086 8.78783749 3.87335836 8.78783749L21.1307406 8.78783749C21.8591982 8.78783749 22.5284885 9.2135252 22.8359039 9.87234275 22.9995365 10.2235001 23.3519954 10.4478542 23.739573 10.4478542L24.95931 10.4478542C25.5363502 10.4478542 26.005744 10.9146226 26.005744 11.4882263 26.005744 12.06183 25.5362229 12.5284712 24.95931 12.5284712L23.0112427 12.5284712C22.4605415 12.5284712 22.0140511 12.9747629 22.0140511 13.5252189 22.0140511 14.075675 22.4605415 14.5219666 23.0112427 14.5219666L24.9591827 14.5219666C26.6358439 14.5219666 28 13.1609615 28 11.4882263 27.9998728 9.81587267 26.6358439 8.45486755 24.9590555 8.45486755zM10.6424787 12.0554708L16.3950667 12.0554708 11.4951239 19.0066318 10.6424787 19.0066318 10.6424787 12.0554708 10.6424787 12.0554708zM3.87335836 6.79472365C3.76507585 6.79472365 3.65806575 6.80031978 3.55220082 6.80909553L3.55220082 4.36803663 4.77957229 4.36803663 5.40929045 6.79472365 3.87335836 6.79472365zM10.6420969 6.79472365L10.6420969 1.9934954 11.4948694 1.9934954 14.8789842 6.79472365 10.6420969 6.79472365zM38 13C23.6635999 13 12 24.6635431 12 39 12 53.3364569 23.6635999 65 38 65 43.9368575 65 49.5263483 63.0515433 54.1645656 59.3655029 54.5932712 59.0248424 54.6644902 58.4013312 54.3238281 57.9726277 53.9832924 57.5439242 53.3595251 57.472832 52.9310726 57.813366 51.5896757 58.8793691 50.162133 59.7880079 48.6653952 60.5333372 49.6835867 59.5838393 50.6415647 58.4916511 51.5257937 57.262718 52.8162114 55.4689689 53.8928455 53.4599194 54.7403897 51.2959092 55.791724 51.6793262 56.82168 52.1000603 57.8274746 52.556973 57.192449 53.4839541 56.4899993 54.3708353 55.7216435 55.2102795 55.3518865 55.6141892 55.3797164 56.2412424 55.7836281 56.6108711 56.1875398 56.9806263 56.8147226 56.9527966 57.1842265 56.5488868 61.5795655 51.7466235 64 45.5141678 64 38.9998735 63.9998735 24.6635431 52.3364001 13 38 13zM33.4494466 15.8577281C32.5031065 17.1558559 31.6464544 18.8782598 30.9116209 20.9902791 30.1149293 23.2802818 29.4886321 25.9242274 29.0499331 28.7956173 27.0311334 28.4331991 25.0559759 27.9478242 23.1420439 27.3436673 25.3308585 21.7962012 29.0303257 17.5945528 33.4494466 15.8577281zM28.7833994 30.7619103C28.5077578 33.0762008 28.3490014 35.5114238 28.3157321 38.0086311L21.0167319 38.0086311C21.1069258 34.8876596 21.6198798 31.9183598 22.4779235 29.2126829 24.5203785 29.8604819 26.6284866 30.3787463 28.7833994 30.7619103zM27.2939986 17.5052448C26.2909869 18.4456348 25.3466709 19.5246672 24.4743328 20.737282 23.1839151 22.5310311 22.1071545 24.5400806 21.2596103 26.7040908 20.2118179 26.3219387 19.1851509 25.9028491 18.1826453 25.447581 20.4879656 22.0868948 23.6247646 19.3402324 27.2939986 17.5052448zM17.1205585 27.1415227C18.2510813 27.6629496 19.4108254 28.140608 20.5965018 28.5724739 19.6563602 31.5226724 19.1227869 34.7127121 19.033352 38.0086311L14.0047583 38.0086311C14.1655387 34.0697201 15.2786046 30.3724214 17.1205585 27.1415227zM14.0047583 39.9912424L19.033352 39.9912424C19.1227869 43.2872879 19.6563602 46.4772011 20.5965018 49.4273996 19.4108254 49.8592655 18.2510813 50.3367974 17.1205585 50.8583508 15.2786046 47.6275786 14.1655387 43.9301534 14.0047583 39.9912424zM18.1826453 52.552419C19.1852774 52.0971509 20.2118179 51.6780613 21.2596103 51.2959092 22.1071545 53.4597929 23.1839151 55.4687159 24.4743328 57.2625915 25.3466709 58.4752063 26.2911134 59.5541122 27.2941251 60.4947552 23.6248911 58.6596411 20.4879656 55.9128522 18.1826453 52.552419zM23.1420439 50.6562062C25.0572409 50.0516698 27.0336634 49.566042 29.0537281 49.2036237 29.6466295 53.0620816 30.5753862 56.5057508 31.7491717 59.1366671 32.2989369 60.3690156 32.8660325 61.3527946 33.4335077 62.1360735 29.0213443 60.3953273 25.328202 56.1970944 23.1420439 50.6562062zM37.0086263 62.7852639C35.8120709 62.2309474 34.6158951 60.6965203 33.5596273 58.3288475 32.4538984 55.850362 31.5758679 52.5791102 31.0111757 48.8930698 32.9805143 48.620592 34.9848931 48.4636073 37.0084998 48.4248988L37.0084998 62.7852639 37.0086263 62.7852639zM37.0086263 46.4417815C34.8959642 46.480743 32.8024035 46.6439261 30.744895 46.9284213 30.6831635 46.4071209 30.6271243 45.8796221 30.5777897 45.3463043 30.527443 44.8010957 30.0449753 44.3999689 29.4993845 44.4504418 28.9541733 44.5007882 28.553171 44.983633 28.6035176 45.5288417 28.6567738 46.1047894 28.7177464 46.6744123 28.7852969 47.2375837 26.6297516 47.6207477 24.520758 48.1391386 22.47805 48.7871906 21.6201328 46.0815137 21.1069258 43.1120874 21.0168584 39.9911159L28.3171236 39.9911159C28.3238281 40.4985015 28.3340745 41.0051281 28.3512784 41.5060622 28.3698737 42.0532948 28.8290656 42.4803538 29.3759214 42.4630235 29.9231566 42.4444282 30.3514827 41.9856181 30.3328873 41.438512 30.3164425 40.9602211 30.3065755 40.4761112 30.2999976 39.9912424L37.0088793 39.9912424 37.0088793 46.4417815 37.0086263 46.4417815zM37.0086263 38.0086311L30.2987326 38.0086311C30.3320018 35.5484879 30.4879753 33.225722 30.7429975 31.0710727 32.8011385 31.3558209 34.8953317 31.519004 37.0086263 31.558092L37.0086263 38.0086311zM37.0086263 29.5751012C34.9843871 29.5363927 32.9793758 29.379408 31.0092782 29.1066772 32.1753473 21.5042426 34.5946432 16.3530963 37.0086263 15.219543L37.0086263 29.5751012zM61.9951152 38.0086311L56.966648 38.0086311C56.8772131 34.7127121 56.3435133 31.5227989 55.4034982 28.5724739 56.5891746 28.140608 57.7487922 27.6630761 58.879315 27.1416492 60.7215219 30.3724214 61.8344613 34.0697201 61.9951152 38.0086311zM57.8173547 25.4474545C56.8147226 25.9027226 55.7881821 26.3218122 54.7403897 26.7039643 53.892972 24.5400806 52.8160849 22.5310311 51.5257937 20.7371555 50.6535821 19.5246672 49.7090131 18.4457613 48.7060014 17.5052448 52.3753619 19.3403589 55.5119079 22.0870213 57.8173547 25.4474545zM52.8579561 27.3436673C50.9440241 27.9478242 48.9687401 28.4333255 46.9498139 28.7956173 46.5111149 25.9243539 45.8846912 23.2802818 45.0881261 20.9902791 44.3532926 18.8782598 43.4966405 17.1557294 42.5503004 15.8574751 46.9694213 17.5944263 50.669015 21.7960747 52.8579561 27.3436673zM38.9913737 39.9912424L45.7011409 39.9912424C45.6678717 42.4515121 45.5117717 44.774278 45.256876 46.9286743 43.198735 46.6439261 41.1046683 46.480743 38.9913737 46.441655L38.9913737 39.9912424 38.9913737 39.9912424zM38.9912472 15.219543C41.4052303 16.3532228 43.8242732 21.5043691 44.9904688 29.1066772 43.0204977 29.379408 41.0156129 29.5363927 38.9912472 29.5751012L38.9912472 15.219543zM38.9911207 31.5582185L38.9912472 31.5582185C41.1045418 31.5191305 43.1986085 31.3559474 45.2567495 31.0713257 45.5117717 33.2258485 45.6677452 35.5486144 45.7010144 38.0086311L38.9911207 38.0086311 38.9911207 31.5582185 38.9911207 31.5582185zM38.9912472 62.7803305L38.9912472 48.4248988C41.0154864 48.4636073 43.0204977 48.620592 44.9904688 48.8933228 43.8243997 56.4956309 41.4052303 61.6467772 38.9912472 62.7803305zM42.5501739 62.1421454C43.496514 60.8440176 44.3532926 59.1214872 45.0879996 57.0093414 45.8846912 54.7193387 46.5109884 52.0752666 46.9496874 49.2040032 48.9686136 49.5664215 50.9438976 50.0519228 52.8578296 50.6559532 50.669015 56.2039253 46.9694213 60.4054472 42.5501739 62.1421454zM53.8121391 39.9912424L54.9832681 39.9912424C54.8929477 43.1122139 54.3799937 46.0816402 53.5220765 48.7873171 51.4796215 48.1393916 49.3713869 47.6211272 47.2163476 47.2379632 47.4919892 44.9237992 47.6507456 42.4884497 47.6840149 39.9912424L49.5825139 39.9912424C50.1301287 39.9912424 50.5738877 39.5473591 50.5738877 38.9998735 50.5738877 38.4523879 50.1301287 38.0085046 49.5825139 38.0085046L47.6841414 38.0085046C47.6508721 35.5112973 47.4922422 33.0762008 47.2164741 30.7617838 49.3715134 30.3786198 51.479748 29.8603554 53.522203 29.2124299 54.3801202 31.9181068 54.8932007 34.8875331 54.9833946 38.0083781L53.8121391 38.0083781C53.2645243 38.0083781 52.8207653 38.4522614 52.8207653 38.999747 52.8207653 39.5473591 53.2645243 39.9912424 53.8121391 39.9912424zM55.4034982 49.4273996C56.3435133 46.4770746 56.8773396 43.2870349 56.966648 39.9911159L61.9957477 39.9911159C61.8381298 43.8407189 60.7650376 47.5578779 58.8862724 50.8613868 57.7537256 50.3389479 56.5915781 49.860151 55.4034982 49.4273996z"/>
  </g>
</svg>
