<svg xmlns="http://www.w3.org/2000/svg" width="86" height="63" viewBox="0 0 86 63">
  <g fill="#FA0">
    <path d="M20.5202318 32L14.4970016 32C13.5988007 32 13 32.5982405 13 33.4956012L13 42.5043988C13 43.4017595 13.5988007 44 14.4970016 44L20.50262 44C21.400821 44 21.9996217 43.4017595 21.9996217 42.5043988L21.9996217 33.4956012C22.0172335 32.5982405 21.4184328 32 20.5202318 32zM19.0056184 41.0087977L16.0116151 41.0087977 16.0116151 35.0087977 19.0232302 35.0087977 19.0056184 41.0087977 19.0056184 41.0087977zM20.5202318 45L14.4970016 45C13.5988007 45 13 45.5982405 13 46.4956012L13 55.5043988C13 56.4017595 13.5988007 57 14.4970016 57L20.50262 57C21.400821 57 21.9996217 56.4017595 21.9996217 55.5043988L21.9996217 46.4956012C22.0172335 45.5982405 21.4184328 45 20.5202318 45zM19.0056184 54.0087977L16.0116151 54.0087977 16.0116151 48.0087977 19.0232302 48.0087977 19.0056184 54.0087977 19.0056184 54.0087977zM71.5029354 32L65.4970646 32C64.5988258 32 64 32.5982405 64 33.4956012L64 42.5043988C64 43.4017595 64.5988258 44 65.4970646 44L71.5029354 44C72.4011742 44 73 43.4017595 73 42.5043988L73 33.4956012C73 32.5982405 72.4011742 32 71.5029354 32zM69.9882583 41.0087977L66.9765166 41.0087977 66.9765166 35.0087977 69.9882583 35.0087977 69.9882583 41.0087977zM71.5029354 45L65.4970646 45C64.5988258 45 64 45.5982405 64 46.4956012L64 55.5043988C64 56.4017595 64.5988258 57 65.4970646 57L71.5029354 57C72.4011742 57 73 56.4017595 73 55.5043988L73 46.4956012C73 45.5982405 72.4011742 45 71.5029354 45zM69.9882583 54.0087977L66.9765166 54.0087977 66.9765166 48.0087977 69.9882583 48.0087977 69.9882583 54.0087977zM33.4973799 21L39.5029983 21C40.4011993 21 41 20.4021102 41 19.5052755L41 7.4947245C41 6.5978898 40.4011993 6 39.5029983 6L33.4973799 6C32.5991789 6 32.0003783 6.5978898 32.0003783 7.4947245L32.0003783 19.5052755C31.9827665 20.4021102 32.5815672 21 33.4973799 21zM34.9943816 8.989449L38.0059967 8.989449 38.0059967 17.992966 34.9943816 17.992966 34.9943816 8.989449zM46.4970646 21L52.5029354 21C53.4011742 21 54 20.4021102 54 19.5052755L54 7.4947245C54 6.5978898 53.4011742 6 52.5029354 6L46.4970646 6C45.5988258 6 45 6.5978898 45 7.4947245L45 19.5052755C45 20.4021102 45.5988258 21 46.4970646 21zM47.9941292 8.989449L51.0058708 8.989449 51.0058708 17.992966 47.9941292 17.992966 47.9941292 8.989449 47.9941292 8.989449zM46.4970646 39L52.5029354 39C53.4011742 39 54 38.4021102 54 37.5052755L54 25.4947245C54 24.5978898 53.4011742 24 52.5029354 24L46.4970646 24C45.5988258 24 45 24.5978898 45 25.4947245L45 37.5052755C45 38.4021102 45.5988258 39 46.4970646 39zM47.9941292 26.989449L51.0058708 26.989449 51.0058708 35.992966 47.9941292 35.992966 47.9941292 26.989449 47.9941292 26.989449zM39.5029354 39C40.4011742 39 41 38.4021102 41 37.5052755L41 25.4947245C41 24.5978898 40.4011742 24 39.5029354 24L33.4970646 24C32.5988258 24 32 24.5978898 32 25.4947245L32 37.5052755C32 38.4021102 32.5988258 39 33.4970646 39L39.5029354 39 39.5029354 39zM34.9941292 26.989449L38.0058708 26.989449 38.0058708 35.992966 34.9941292 35.992966 34.9941292 26.989449z"/>
    <path d="M84.5722656,60.1470432 L80.2722656,60.1470432 L80.2722656,27.2037826 C80.2722656,26.3478956 79.7011719,25.7773042 78.8445313,25.7773042 L60.2,25.7773042 L60.2,1.42647842 C60.2,0.570591369 59.6289063,0 58.7722656,0 L27.2277344,0 C26.3710938,0 25.8,0.570591369 25.8,1.42647842 L25.8,25.7773042 L7.17226563,25.7773042 C6.315625,25.7773042 5.74453125,26.3478956 5.74453125,27.2037826 L5.74453125,60.1470432 L1.42773438,60.1470432 C0.57109375,60.1470432 0,60.7176345 0,61.5735216 C0,62.4294086 0.57109375,63 1.42773438,63 L7.15546875,63 L27.2277344,63 L38.7,63 L47.3,63 L58.7722656,63 L78.8445313,63 L84.5722656,63 C85.4289063,63 86,62.4294086 86,61.5735216 C86,60.7176345 85.4289063,60.1470432 84.5722656,60.1470432 Z M8.6,28.6470432 L25.8,28.6470432 L25.8,60.1470432 L8.6,60.1470432 L8.6,28.6470432 Z M28.6722656,27.2037826 L28.6722656,2.86973895 L57.3445312,2.86973895 L57.3445312,27.2205647 L57.3445312,60.1638253 L48.7445312,60.1638253 L48.7445312,47.2751731 C48.7445312,46.4192861 48.1734375,45.8486947 47.3167969,45.8486947 L38.7167969,45.8486947 C37.8601562,45.8486947 37.2890625,46.4192861 37.2890625,47.2751731 L37.2890625,60.1638253 L28.6890625,60.1638253 L28.6722656,27.2037826 L28.6722656,27.2037826 Z M40.1277344,60.1470432 L40.1277344,48.6848695 L45.8554688,48.6848695 L45.8554688,60.1470432 L40.1277344,60.1470432 Z M60.2,28.6470432 L77.4,28.6470432 L77.4,60.1470432 L60.2,60.1470432 L60.2,28.6470432 Z"/>
  </g>
</svg>
