<svg xmlns="http://www.w3.org/2000/svg" width="74" height="63" viewBox="0 0 74 63">
  <g fill="#FA0">
    <path d="M48.9087692 43.9546332C48.4079346 42.7673745 47.2774794 42 46.0039286 42 45.5746419 42 45.1739742 42.0868726 44.7733065 42.246139L34.9426393 46.4449807C34.1699231 46.7779923 33.5689216 47.4005792 33.2398017 48.1824324 32.9106819 48.9642857 32.9249914 49.8474903 33.2541113 50.6293436L35.1000444 55.0453668C35.600879 56.2326255 36.7313342 57 38.004885 57 38.4341718 57 38.8348394 56.9131274 39.2355071 56.753861L49.0661743 52.5550193C50.668845 51.8745174 51.4272516 49.992278 50.7547023 48.3706564L48.9087692 43.9546332zM48.3650059 49.8330116C48.3077677 49.9777992 48.1932912 50.0936293 48.0501956 50.1515444L38.2195284 54.3503861C38.1479806 54.3793436 38.0764328 54.3938224 37.9905754 54.3938224 37.7616225 54.3938224 37.5469791 54.2490347 37.4611217 54.0318533L35.6151886 49.6158301C35.4864025 49.3262548 35.6294981 48.9787645 35.9156893 48.8484556L45.7463566 44.6496139C45.8179044 44.6206564 45.8894522 44.6061776 45.9753095 44.6061776 46.2042625 44.6061776 46.4189059 44.7509653 46.5047632 44.9681467L48.3506964 49.3841699C48.4222442 49.5289575 48.4222442 49.6882239 48.3650059 49.8330116zM40.3558648 30.3917526C41.7425447 31.4278351 43.5765408 32 45.5 32 47.4234592 32 49.2425447 31.4278351 50.6441352 30.3917526 52.1650099 29.2474227 53 27.7010309 53 26 53 24.2989691 52.1650099 22.7525773 50.6441352 21.6082474 49.2574553 20.5721649 47.4234592 20 45.5 20 43.5765408 20 41.7574553 20.5721649 40.3558648 21.6082474 38.8349901 22.7525773 38 24.2989691 38 26 38 27.7010309 38.8349901 29.2628866 40.3558648 30.3917526zM40.6838966 26.0154639C40.6838966 25.1958763 41.1759443 24.4072165 42.0705765 23.7886598 42.9801193 23.1701031 44.2326044 22.814433 45.4850895 22.814433 48.0944334 22.814433 50.2862823 24.2835052 50.2862823 26.0154639 50.2862823 27.7474227 48.0795229 29.2164948 45.4850895 29.2164948 42.8906561 29.2164948 40.6838966 27.7474227 40.6838966 26.0154639zM23.6858152 40.9763912C24.2809081 42.2040472 25.6347446 43 27.1075997 43 27.6283061 43 28.1490124 42.9055649 28.6250868 42.703204L33.7726409 40.6256324C34.6801577 40.2613828 35.3942693 39.5868465 35.751325 38.7369309 36.1083808 37.8870152 36.0786262 36.9696459 35.6769384 36.1332209L32.3295405 29.306914C31.7790795 28.2006745 30.6186482 27.4317032 29.279689 27.3102867 28.9077559 27.2698145 28.5358228 27.2293423 28.1638897 27.1888702 27.3456369 27.0944351 26.4976294 27 25.6644993 27 24.4743133 27 23.3436367 27.5126476 22.6444025 28.3895447L20.7252277 30.7639123C19.9367295 31.7487352 19.7730789 33.0438449 20.3235399 34.1500843L23.6858152 40.9763912zM24.8313691 29.8330523C25.054529 29.5632378 25.4264621 29.4148398 25.7835179 29.4418212L29.0118972 29.7386172C29.3838303 29.7790894 29.7111314 29.994941 29.874782 30.3052277L33.2221799 37.1315346C33.3411985 37.3608769 33.3411985 37.6306914 33.2370573 37.8600337L33.2370573 37.8600337C33.132916 38.1028668 32.9395108 38.2917369 32.6865963 38.386172L27.5390421 40.4637437C27.4051462 40.5177066 27.2563729 40.544688 27.1075997 40.544688 26.6910346 40.544688 26.3042242 40.3153457 26.1405736 39.9780776L22.7931757 33.1517707C22.6444025 32.841484 22.6890344 32.4772344 22.9121943 32.1939292 24.7718598 29.9139966 24.8313691 29.8330523 24.8313691 29.8330523 24.8313691 29.8330523 24.8313691 29.8330523 24.8313691 29.8330523z"/>
    <path d="M26.5,35 C27.3256881,35 28,34.3256881 28,33.5 C28,32.6743119 27.3256881,32 26.5,32 C25.6743119,32 25,32.6743119 25,33.5 C25,34.3256881 25.6743119,35 26.5,35 Z"/>
    <path d="M74,18.6178677 C74,14.4503296 70.608932,11.0704706 66.4275728,11.0704706 L63.5537864,11.0704706 C62.9933981,10.0966129 61.958835,9.49511253 60.8236893,9.49511253 L57.3320388,9.49511253 C56.1968932,9.49511253 55.1623301,10.0966129 54.6019417,11.0704706 L51.2539806,11.0704706 L51.2539806,8.13457604 C51.2539806,3.65196636 47.5899029,0 43.0924272,0 L30.9219417,0 C26.424466,0 22.7603883,3.65196636 22.7603883,8.13457604 L22.7603883,11.0561491 L19.4124272,11.0561491 C18.8520388,10.0822914 17.8174757,9.48079109 16.6823301,9.48079109 L13.1763107,9.48079109 C12.041165,9.48079109 11.0066019,10.0822914 10.4462136,11.0561491 L7.57242718,11.0561491 C3.39106796,11.0561491 0,14.4360082 0,18.6035463 L0,47.5042055 L0,49.652421 L0,53.8772448 C0,58.0447829 3.39106796,61.424642 7.57242718,61.424642 L10.4462136,61.424642 C11.0066019,62.3984997 12.041165,63 13.1763107,63 L16.6823301,63 C17.8174757,63 18.8520388,62.3984997 19.4124272,61.424642 L54.6019417,61.424642 C55.1623301,62.3984997 56.1968932,63 57.3320388,63 L60.8236893,63 C61.958835,63 62.9933981,62.3984997 63.5537864,61.424642 L66.4275728,61.424642 C70.608932,61.424642 74,58.0447829 74,53.8772448 L74,18.6178677 Z M71.3992233,53.8915663 C71.3992233,56.6269607 69.1720388,58.8467834 66.4275728,58.8467834 L63.9848544,58.8467834 L63.9848544,13.6626506 L66.4275728,13.6626506 C69.1720388,13.6626506 71.3992233,15.8824733 71.3992233,18.6178677 L71.3992233,53.8915663 Z M56.7716505,12.6315072 C56.7716505,12.330757 57.0159223,12.0729711 57.3320388,12.0729711 L60.8236893,12.0729711 C61.1254369,12.0729711 61.3840777,12.3164356 61.3840777,12.6315072 L61.3840777,59.8636054 C61.3840777,60.1643555 61.1398058,60.4221414 60.8236893,60.4221414 L57.3320388,60.4221414 C57.0302913,60.4221414 56.7716505,60.178677 56.7716505,59.8636054 L56.7716505,12.6315072 Z M43.0780583,5.75721755 L30.9075728,5.75721755 C29.5856311,5.75721755 28.5079612,6.8313253 28.5079612,8.14889748 L28.5079612,11.0704706 L25.3324272,11.0704706 L25.3324272,8.13457604 L25.3324272,8.13457604 C25.3324272,5.06978859 27.8326214,2.5778586 30.9075728,2.5778586 L43.0780583,2.5778586 C46.1530097,2.5778586 48.6532039,5.06978859 48.6532039,8.13457604 L48.6532039,11.0561491 L45.4776699,11.0561491 L45.4776699,8.13457604 C45.4776699,6.8313253 44.4,5.75721755 43.0780583,5.75721755 Z M42.8768932,8.33507615 L42.8768932,11.0561491 L31.1087379,11.0561491 L31.1087379,8.33507615 L42.8768932,8.33507615 Z M54.1708738,13.6626506 L54.1708738,58.8467834 L19.8291262,58.8467834 L19.8291262,13.6626506 L54.1708738,13.6626506 Z M12.6159223,12.6315072 C12.6159223,12.4882928 12.6733981,12.3450784 12.7739806,12.2305069 C12.8745631,12.1159354 13.0182524,12.0729711 13.1763107,12.0729711 L16.6823301,12.0729711 C16.9840777,12.0729711 17.2427184,12.3164356 17.2427184,12.6315072 L17.2427184,59.8636054 C17.2427184,60.1643555 16.9984466,60.4221414 16.6823301,60.4221414 L13.1763107,60.4221414 C12.8745631,60.4221414 12.6159223,60.178677 12.6159223,59.8636054 L12.6159223,12.6315072 Z M2.6007767,49.6667424 L2.6007767,47.5185269 L2.6007767,45.0122755 L2.6007767,44.9979541 L2.6007767,18.6178677 C2.6007767,15.8824733 4.82796117,13.6626506 7.57242718,13.6626506 L10.0151456,13.6626506 L10.0151456,58.8467834 L7.57242718,58.8467834 C4.82796117,58.8467834 2.6007767,56.6269607 2.6007767,53.8915663 L2.6007767,49.6667424 Z"/>
  </g>
</svg>
