<svg xmlns="http://www.w3.org/2000/svg" width="89" height="65" viewBox="0 0 89 65">
  <path fill="#004B9C" d="M85.0214219,47.7253257 L79.6370957,46.1948641 C79.4046875,46.1288035 79.242332,45.9147119 79.242332,45.6741613 L79.242332,43.8862018 C79.6803789,43.5842599 80.0982617,43.2463478 80.4888535,42.8691798 C82.3818418,41.0416184 83.4242891,38.5902859 83.4242891,35.9665387 L83.4242891,33.4992963 L83.9449043,32.4635975 C84.5162773,31.3265597 84.8182168,30.0535961 84.8182168,28.7825348 L84.8182168,22.0986546 C84.8182168,21.382364 84.234502,20.8016532 83.5145059,20.8016532 L70.9688086,20.8016532 C66.4068633,20.8016532 62.6952852,24.4941296 62.6952852,29.0325966 L62.6952852,29.1098979 C62.6952852,30.1668675 62.9464668,31.2253936 63.4215391,32.1706481 L64.0892129,33.4991234 L64.0892129,35.6175589 C64.0892129,38.9748901 65.7522266,41.9872189 68.2711699,43.7999079 L68.2715176,45.6738155 C68.2715176,45.9627874 68.2715176,46.0824574 67.195,46.3885497 L64.5677617,47.1352766 L56.9678223,44.3859796 C56.9951133,44.0292178 56.8741289,43.6664033 56.6125176,43.3929954 L54.1839648,40.8546773 L54.1839648,36.5935956 C54.440709,36.3831355 54.6938027,36.1669686 54.9390742,35.9383505 C58.0027949,33.0814889 59.7598496,29.0479877 59.7598496,24.8721622 L59.7598496,21.4691766 C60.6849629,19.4664336 61.1537773,17.3471334 61.1537773,15.1645396 L61.1537773,1.29700133 C61.1537773,0.58071073 60.5700625,0 59.8500664,0 L40.3345566,0 C33.4666074,0 27.87925,5.55877478 27.87925,12.3912049 L27.87925,15.1648855 C27.87925,17.3474793 28.3480645,19.4667795 29.2731777,21.4695225 L29.2731777,24.3974597 C29.2731777,29.2458237 31.4401191,33.6137783 34.8490625,36.4934671 L34.8490625,40.8548503 L32.4205098,43.3931683 C32.1588984,43.6665762 32.0379141,44.0293907 32.0652051,44.3861525 L24.0439062,47.2878039 C23.462625,47.4980911 22.922541,47.7829126 22.4321719,48.1279149 L21.1726133,47.5013768 C24.9220859,45.8777041 26.1098535,43.5941171 26.1668691,43.4806727 C26.3504316,43.11561 26.3504316,42.6856973 26.1668691,42.3206347 C25.2269805,40.4505317 25.113123,37.0228166 25.0216895,34.2686775 C24.9912695,33.351784 24.9624141,32.4855601 24.9073105,31.7142766 C24.462832,25.4931665 19.7089805,20.8016532 13.8492344,20.8016532 C7.98948828,20.8016532 3.23546289,25.4929935 2.7911582,31.7142766 C2.73605469,32.485733 2.70719922,33.3519569 2.6767793,34.2690234 C2.5853457,37.0229895 2.47131445,40.4503588 1.53159961,42.3204618 C1.34803711,42.6855244 1.34803711,43.1154371 1.53159961,43.4804998 C1.58861523,43.5939441 2.77394922,45.8728619 6.53089648,47.4984369 L3.03225781,49.2386669 C1.16186719,50.1697409 0,52.0400168 0,54.120234 L0,63.7023069 C0,64.4185975 0.583714844,64.9993083 1.30371094,64.9993083 C2.02370703,64.9993083 2.60742187,64.4185975 2.60742187,63.7023069 L2.60742187,54.120234 C2.60742187,53.0286777 3.21703711,52.04728 4.19829687,51.5590887 L8.55495117,49.3920589 L10.0703848,50.824813 C11.130041,51.8266169 12.489377,52.3272594 13.8492344,52.3272594 C15.2087441,52.3272594 16.5687754,51.826271 17.628084,50.824813 L19.1433437,49.3922318 L20.5638672,50.0988382 C19.8949766,51.1635898 19.5153359,52.4121697 19.5153359,53.7200659 L19.5153359,63.7026528 C19.5153359,64.4189434 20.0990508,64.9996541 20.8190469,64.9996541 C21.539043,64.9996541 22.1227578,64.4189434 22.1227578,63.7026528 L22.1227578,53.7200659 C22.1227578,51.9395424 23.2528145,50.3343736 24.9349492,49.7258206 L33.3920352,46.6664538 L36.9125762,51.9203468 C37.3626172,52.5920206 38.0838301,53.022798 38.8912617,53.1023474 C38.9813047,53.111167 39.0708262,53.1154903 39.1601738,53.1154903 C39.8725215,53.1154903 40.5547969,52.8365486 41.0648086,52.3293346 L43.2126289,50.1925681 L43.2126289,63.7028257 C43.2126289,64.4191163 43.7963437,64.9998271 44.5163398,64.9998271 C45.2363359,64.9998271 45.8200508,64.4191163 45.8200508,63.7028257 L45.8200508,50.1925681 L47.9678711,52.3293346 C48.477709,52.8367215 49.1599844,53.1156633 49.8725059,53.1156633 C49.9616797,53.1156633 50.051375,53.1113399 50.1412441,53.1025203 C50.9488496,53.0229709 51.6700625,52.5921935 52.1201035,51.9205198 L55.6408184,46.6667997 L64.0977305,49.7261664 C65.7796914,50.3347195 66.9099219,51.9398883 66.9099219,53.7204117 L66.9099219,63.7029987 C66.9099219,64.4192893 67.4936367,65 68.2136328,65 C68.9336289,65 69.5173437,64.4192893 69.5173437,63.7029987 L69.5173437,53.7204117 C69.5173437,51.9170611 68.7971738,50.2257713 67.5890684,48.9749433 L67.9111719,48.8834614 C68.2360566,48.7911149 68.6793184,48.6647005 69.1243184,48.447669 L72.4529531,51.7591728 L72.4529531,63.7029987 C72.4529531,64.4192893 73.036668,65 73.7566641,65 C74.4766602,65 75.060375,64.4192893 75.060375,63.7029987 L75.060375,51.7591728 L78.3658906,48.4706691 C78.5416309,48.559557 78.7262363,48.6346101 78.9205762,48.6897759 L84.3050762,50.2202375 C85.534041,50.5695632 86.3925781,51.7017589 86.3925781,52.9735119 L86.3925781,63.7029987 C86.3925781,64.4192893 86.976293,65 87.6962891,65 C88.4162852,65 89,64.4192893 89,63.7029987 L89,52.9735119 C89,50.5493299 87.3639297,48.3912927 85.0214219,47.7253257 Z M8.36374023,45.4344755 C5.92510547,44.5615071 4.70187695,43.3976646 4.17969727,42.7621339 C4.53569727,41.8362479 4.76654102,40.7758196 4.9228125,39.656421 C5.64176563,41.3714027 6.84587305,42.8354578 8.36374023,43.8799762 L8.36374023,45.4344755 Z M15.8322656,48.9446799 C14.7202871,49.9957698 12.9783555,49.9955968 11.8667246,48.944507 L10.6542734,47.7983037 C10.8588691,47.4169853 10.9713359,46.9846515 10.9713359,46.5317386 L10.9713359,45.1493081 C11.8808047,45.4320544 12.8476367,45.5845818 13.849582,45.5845818 C14.8503105,45.5845818 15.8166211,45.4313627 16.7276543,45.1501728 L16.7274805,46.5315657 C16.7274805,46.9846515 16.8397734,47.4171582 17.044543,47.7986495 L15.8322656,48.9446799 Z M13.8499297,42.9905791 C9.956875,42.9905791 6.78990039,39.8397305 6.78990039,35.9668846 C6.78990039,35.250594 6.20618555,34.6698832 5.48618945,34.6698832 C5.41318164,34.6698832 5.34191211,34.6773194 5.27220703,34.6889059 C5.27603125,34.5773638 5.27968164,34.4656488 5.28350586,34.3551442 C5.31253516,33.4633261 5.34052148,32.620967 5.39214844,31.8984508 C5.55867578,29.5679988 6.49474023,27.4205104 8.0279043,25.8513118 C9.57480078,24.2679325 11.6423125,23.3960018 13.849582,23.3960018 C16.0568516,23.3960018 18.1241895,24.2679325 19.6712598,25.8513118 C21.2044238,27.4205104 22.1404883,29.5679988 22.3070156,31.8984508 C22.3584687,32.6207941 22.3866289,33.4629803 22.4161797,34.3546254 C22.4187871,34.431235 22.4213945,34.5088821 22.424002,34.5860105 C21.0055645,32.4118904 18.8149824,30.8096614 15.9845391,29.9048733 C13.3696426,29.0690856 11.1206543,29.1207927 11.0257441,29.1232138 C10.6843457,29.1327251 10.3603301,29.2748765 10.1234023,29.5194045 L7.77116016,31.9463534 C7.2714043,32.4620411 7.28635352,33.2831294 7.80470898,33.7803132 C8.32306445,34.2774971 9.14840039,34.2624519 9.64815625,33.7469371 L11.6054609,31.7275925 C13.2910723,31.809563 18.7139883,32.4369657 20.8230449,37.0572304 C20.2923477,40.4619453 17.3508281,42.9905791 13.8499297,42.9905791 Z M19.3347285,45.4387988 L19.3349023,43.8919086 C20.8515527,42.853097 22.0573984,41.3918088 22.776873,39.6638572 C22.9331445,40.7806618 23.1638145,41.838669 23.5191191,42.7624798 C22.9998945,43.3919578 21.7709297,44.5661763 19.3347285,45.4387988 Z M31.8805996,24.3972868 L31.8805996,21.17934 C31.8805996,20.9840981 31.8362734,20.7912772 31.7509238,20.6154039 C30.9120293,18.8871063 30.4866719,17.0533194 30.4866719,15.1648855 L30.4866719,12.3913778 C30.4866719,6.98910785 34.9045137,2.5941756 40.3345566,2.5941756 L58.5463555,2.5941756 L58.5463555,15.1650584 C58.5463555,17.0534923 58.120998,18.8872793 57.2821035,20.6155768 C57.1967539,20.7914502 57.1524277,20.984271 57.1524277,21.179513 L57.1524277,24.8725081 C57.1524277,28.3849606 55.7331211,31.6428551 53.1559453,34.0461121 C52.8341895,34.3459788 52.5002656,34.6271687 52.155043,34.8891629 C52.1473945,34.8943509 52.1400938,34.9000577 52.1326191,34.9054187 C49.7183203,36.7290025 46.7611563,37.6152868 43.6729258,37.4162403 C37.0603301,36.9903051 31.8805996,31.2717397 31.8805996,24.3972868 Z M39.2211875,50.4948559 C39.2121484,50.5038484 39.1911152,50.5251193 39.1485273,50.520623 C39.1061133,50.5164726 39.0894258,50.4917431 39.0822988,50.4810212 L35.0277578,44.4304235 L36.3325117,43.0664969 L42.4834199,47.2492398 L39.2211875,50.4948559 Z M44.5165137,45.4896413 L37.4564844,40.6886611 L37.4564844,38.267592 C39.2832441,39.2500273 41.3286797,39.86446 43.5041387,40.0045362 C43.8477969,40.0266717 44.1893691,40.0375665 44.5298984,40.0375665 C47.0227676,40.0375665 49.4219434,39.4447504 51.576543,38.319472 L51.576543,40.6886611 L44.5165137,45.4896413 Z M49.9507285,50.4813671 C49.9436016,50.492089 49.9269141,50.5168184 49.8845,50.5209689 C49.8419121,50.5263298 49.8210527,50.5040214 49.8118398,50.4952018 L46.5496074,47.2497586 L52.7005156,43.0668428 L54.0054434,44.4307694 L49.9507285,50.4813671 Z M73.7566641,49.3870438 L70.7981094,46.4438884 C70.8497363,46.2106011 70.8789395,45.9551783 70.8787656,45.6734696 L70.8785918,45.126135 C71.699582,45.394182 72.5648984,45.5532808 73.4602871,45.5799126 C73.5607598,45.5830254 73.6603633,45.5844088 73.7604883,45.5844088 C74.749918,45.5844088 75.715707,45.435686 76.6349102,45.1519021 L76.6349102,45.6741613 C76.6349102,45.9328699 76.6675898,46.1863904 76.729125,46.4300537 L73.7566641,49.3870438 Z M78.6730449,41.0077235 C77.2912852,42.3417326 75.465916,43.0462637 73.5386836,42.9871204 C69.765918,42.8745407 66.6966348,39.5685708 66.6966348,35.6179047 L66.6966348,33.193204 C66.6966348,32.9917364 66.6495273,32.7932088 66.5589629,32.613185 L65.7536172,31.0107831 C65.4586309,30.4236738 65.302707,29.7665265 65.302707,29.1100708 L65.302707,29.0327696 C65.302707,25.9244626 67.8445957,23.3958288 70.9688086,23.3958288 L82.2107949,23.3958288 L82.2107949,28.7827077 C82.2107949,29.653255 82.0039395,30.5250128 81.6126523,31.3037324 L80.9545391,32.613185 C80.8639746,32.7933817 80.8168672,32.9917364 80.8168672,33.193204 L80.8168672,35.9667116 C80.8168672,37.8828149 80.0555,39.6730226 78.6730449,41.0077235 Z"/>
</svg>
