<svg xmlns="http://www.w3.org/2000/svg" width="65" height="65" viewBox="0 0 65 65">
  <g fill="#004B9C">
    <path d="M58.5660161,13.0812721 C58.146562,12.5196304 57.351072,12.4043567 56.7891763,12.8238107 C56.2275344,13.2433916 56.1121338,14.0388815 56.5317148,14.6006502 C65.3644977,26.4273733 64.1409208,43.2301611 53.6856734,53.6855338 C42.0039293,65.3672761 22.9962121,65.3672761 11.314468,53.6855338 C-0.367403143,42.0037915 -0.367403143,22.9960773 11.314468,11.314335 C21.7816489,0.847155626 38.5962461,-0.367915187 50.4262718,8.48847965 C50.9876598,8.90856839 51.7832767,8.79418339 52.2034925,8.23292249 C52.6235813,7.67166159 52.5091963,6.87604475 51.9479353,6.45582906 C45.7509589,1.8166986 38.0626609,-0.449419258 30.2994604,0.0740095337 C22.4607227,0.60289732 15.0807945,3.95700566 9.51896602,9.51883329 C3.38064212,15.6574101 0,23.8188622 0,32.4999344 C0,41.1810066 3.38064212,49.3425856 9.51896602,55.4810355 C15.6575438,61.6193584 23.8189971,65 32.5000707,65 C41.1811443,65 49.3425976,61.6193584 55.4810484,55.4809085 C61.0381797,49.9236512 64.3920346,42.549818 64.9247311,34.71781 C65.4522225,26.961847 63.1939754,19.2778667 58.5660161,13.0812721 Z"/>
    <path d="M54.7116635 9.3108184L54.6929407 9.29199688C54.3071922 8.90407552 53.6798307 8.90249055 53.2920018 9.28833164 52.9040739 9.67417273 52.9024889 10.3014245 53.2883365 10.6892469L53.3070593 10.7080684C53.500627 10.9026234 53.7549199 11 54.0093119 11 54.2619207 11 54.5147277 10.9040103 54.7079982 10.7117336 55.0959261 10.3258925 55.0975111 9.69864071 54.7116635 9.3108184zM31.4635062 44.1150098C30.9754206 43.8582606 30.3716044 44.0458313 30.11498 44.5338743 29.8582558 45.0218176 30.0458811 45.6253578 30.5339667 45.8820072L30.5405571 45.885501C30.6884406 45.9631647 30.8465093 46 31.0023811 46 31.3608565 46 31.7069499 45.8050423 31.8857881 45.4648397 32.1424125 44.9769963 31.9515918 44.3716592 31.4635062 44.1150098z"/>
    <path d="M51.9376618,27.8017013 C51.7879208,27.3311045 51.3898413,26.9880367 50.9105937,26.9169272 L38.6319591,25.0938194 L33.1407773,13.7246152 C32.9265345,13.2809281 32.4841815,13 31.9999723,13 C31.5157631,13 31.0735373,13.2809281 30.8591673,13.7246152 L25.3679855,25.0938194 L13.0893509,26.9169272 C12.6101033,26.9881667 12.2118966,27.3311045 12.0622828,27.8017013 C11.912669,28.2722982 12.0374744,28.7889147 12.3842832,29.1343224 L21.2691278,37.9840134 L19.1717361,50.4800501 C19.0898047,50.9678069 19.2859819,51.4607636 19.6778276,51.7515717 C20.0695459,52.0423797 20.5888686,52.0808595 21.0176087,51.850501 L28.8339107,47.651529 C29.455902,47.3175612 29.6949533,46.5314565 29.3679912,45.8960207 C29.0411563,45.2605849 28.2717141,45.0164466 27.6499772,45.3502843 L22.1152853,48.3234945 L23.8900406,37.750145 C23.9609035,37.3284278 23.824012,36.8981307 23.5241484,36.5995227 L16.0063106,29.1114426 L26.3958168,27.5687429 C26.8101809,27.5072533 27.1683125,27.2412751 27.3536758,26.8576476 L31.9999723,17.2377117 L36.6462688,26.8576476 C36.8317594,27.2415351 37.1903999,27.5076433 37.6051455,27.5688729 L47.9937612,29.1114426 L40.4759235,36.5995227 C40.1760598,36.8981307 40.0391683,37.3284278 40.1100313,37.750145 L41.8847865,48.3234945 L36.5494524,45.4574036 C35.9275883,45.1231758 35.1582733,45.3677042 34.8313112,46.00314 C34.5043491,46.6385757 34.7434004,47.4246805 35.3653917,47.7587783 L42.9824631,51.850631 C43.1685897,51.9507303 43.3717642,52 43.5743026,52 C43.8380351,52 44.1004953,51.9162806 44.322117,51.7515717 C44.7139626,51.4606336 44.9101399,50.9676769 44.8282085,50.4800501 L42.7308168,37.9840134 L51.6156614,29.1343224 C51.9624702,28.7889147 52.0874028,28.2722982 51.9376618,27.8017013 Z"/>
  </g>
</svg>
