<svg xmlns="http://www.w3.org/2000/svg" width="64" height="63" viewBox="0 0 64 63">
  <g fill="#FA0">
    <rect width="3" height="5" x="32" y="58"/>
    <path d="M60.5359736,5.04339051 L55.5089109,7.05650858 L49.70033,7.05650858 C47.9260726,7.05650858 46.4686469,8.51866801 46.4686469,10.2986882 L46.4686469,14.3249243 C46.4686469,14.346115 46.4686469,14.3673058 46.4686469,14.4096872 C45.7716172,13.5620585 44.8844884,12.9051463 43.8706271,12.5025227 L43.8706271,11.2946519 C43.8706271,8.28557013 42.6877888,5.44601413 40.5544554,3.30575177 C38.4422442,1.18668012 35.6118812,0 32.6125413,0 C26.3815182,0 21.3333333,5.06458123 21.3333333,11.3158426 L21.3333333,12.5237134 C18.9254125,13.4561049 17.320132,15.7870838 17.320132,18.3723512 C17.320132,19.9616549 17.9115512,21.4661958 19.009901,22.6316852 C18.5663366,23.5005045 18.3339934,24.4540868 18.3339934,25.4288597 C18.3339934,26.8062563 18.7775578,28.09889 19.6013201,29.2008073 L18.5874587,29.667003 L17.9960396,23.1614531 C17.8270627,21.29667 16.5174917,19.7709384 14.7221122,19.3047427 L14.7221122,13.1382442 L14.7432343,13.1382442 L14.7432343,1.31382442 L0,7.24722503 L12.2719472,12.184662 L12.2719472,19.431887 C10.4976898,20.025227 9.25148515,21.6992936 9.25148515,23.5852674 L9.25148515,36.320888 C9.25148515,39.3511604 11.7016502,41.8092836 14.7221122,41.8092836 C15.3768977,41.8092836 16.0316832,41.6821393 16.6442244,41.4702321 L22.3260726,39.3299697 L22.3260726,63 L24.7551155,63 L24.7551155,53.9091826 L40.4277228,53.9091826 L40.4277228,63 L42.8778878,63 L42.8778878,39.308779 L48.559736,41.4490414 C49.1722772,41.6821393 49.8270627,41.7880928 50.4818482,41.7880928 C53.5023102,41.7880928 55.9524752,39.3299697 55.9524752,36.2996973 L55.9524752,23.542886 C55.9524752,22.5257316 55.6145215,21.5721493 54.9386139,20.7669021 L54.9386139,17.5882947 L55.5089109,17.5882947 L60.5359736,19.6014127 L64,19.6014127 L64,5.04339051 L60.5359736,5.04339051 Z M61.0006601,17.1644803 L56.9452145,15.5327952 L56.9452145,9.11200807 L61.0006601,7.48032291 L61.5709571,7.48032291 L61.5709571,17.1644803 L61.0006601,17.1644803 Z M6.82244224,7.24722503 L12.2085809,5.08577195 L12.2085809,9.4086781 L6.82244224,7.24722503 Z M15.7993399,39.160444 C15.4613861,39.2875883 15.1023102,39.3511604 14.7221122,39.3511604 C13.0534653,39.3511604 11.6805281,37.9737639 11.6805281,36.2996973 L11.6805281,23.542886 C11.6805281,23.0131181 11.8917492,22.5257316 12.2719472,22.1654894 L12.2719472,23.6276488 L14.7009901,23.6276488 L14.7009901,21.9323915 C15.1867987,22.2502523 15.5036304,22.7800202 15.5458746,23.3733602 L16.4541254,33.3118063 L24.7128713,29.5398587 L29.5709571,39.2875883 L28.5570957,39.2875883 C26.7405941,39.2875883 25.2831683,40.7709384 25.2831683,42.5721493 L25.2831683,47.6155399 C25.2831683,49.4379415 26.7617162,50.9001009 28.5570957,50.9001009 L36.6046205,50.9001009 C37.4706271,50.9001009 38.2943894,50.5610494 38.9280528,49.9465187 C39.5405941,49.3319879 39.8785479,48.5055499 39.8785479,47.6155399 L39.8785479,42.5933401 C39.8785479,40.7709384 38.4,39.308779 36.6046205,39.308779 L35.6118812,39.308779 L40.469967,29.5610494 L48.7287129,33.332997 L49.510231,24.7931382 C50.1016502,25.3652876 50.8831683,25.6619576 51.7069307,25.6619576 C52.3405941,25.6619576 52.9742574,25.4712412 53.5023102,25.0898083 L53.5023102,36.2996973 C53.5023102,37.9737639 52.1293729,39.3511604 50.4607261,39.3511604 C50.1016502,39.3511604 49.7425743,39.2875883 49.3834983,39.160444 L40.4066007,35.7911201 L40.4066007,51.4722503 L24.7339934,51.4722503 L24.7339934,35.7911201 L15.7993399,39.160444 Z M21.5445545,23.1402624 L22.2838284,22.1654894 L21.3122112,21.4238143 C20.3194719,20.6821393 19.770297,19.580222 19.770297,18.3723512 C19.770297,16.5711403 21.0587459,14.9818365 22.8118812,14.6215943 L23.7834983,14.4308779 L23.7834983,11.3158426 C23.7834983,6.42078708 27.7544554,2.43693239 32.6336634,2.43693239 C37.5128713,2.43693239 41.4838284,6.42078708 41.4838284,11.3158426 L41.4838284,14.4308779 L42.4554455,14.6215943 C44.229703,14.9818365 45.4970297,16.5499495 45.4970297,18.3723512 C45.4970297,19.580222 44.9267327,20.6821393 43.9551155,21.4238143 L42.9834983,22.1654894 L43.7227723,23.1402624 C44.229703,23.8183653 44.5042904,24.6024218 44.5042904,25.4288597 C44.5042904,26.4248234 44.1240924,27.3995964 43.4481848,28.0776993 L43.3636964,28.1624622 L37.8930693,25.6619576 L37.8930693,23.7547931 C39.8151815,22.1654894 40.9135314,19.8345106 40.9135314,17.3551968 L40.9135314,11.1039354 L38.6534653,11.1039354 C37.1115512,11.1039354 35.8442244,9.83249243 35.8442244,8.28557013 L35.8442244,8.07366297 L33.4151815,8.07366297 L33.4151815,8.28557013 C33.4151815,9.83249243 32.1478548,11.1039354 30.6059406,11.1039354 L24.3537954,11.1039354 L24.3537954,17.3763875 C24.3537954,19.8557013 25.4521452,22.1866801 27.3742574,23.7759839 L27.3742574,25.6831483 L21.9036304,28.1836529 L21.8825083,28.1624622 C21.1643564,27.4419778 20.7630363,26.4883956 20.7630363,25.4712412 C20.7419142,24.6236125 21.0165017,23.8183653 21.5445545,23.1402624 Z M47.7148515,16.8678103 C47.9471947,17.0585267 48.2217822,17.2068618 48.4963696,17.3128153 L48.4963696,20.4702321 C47.7782178,21.2119072 47.3346535,22.1442987 47.2290429,23.1402624 L46.6376238,29.6458123 L45.6448845,29.1796165 C46.4686469,28.09889 46.9122112,26.7850656 46.9122112,25.407669 C46.9122112,24.4328961 46.679868,23.4793138 46.2363036,22.6104945 C47.3135314,21.445005 47.9260726,19.9404642 47.9260726,18.3511604 C47.9049505,17.8849647 47.8415842,17.3763875 47.7148515,16.8678103 Z M26.7828383,13.5408678 L30.5848185,13.5408678 C32.1478548,13.5408678 33.6052805,12.8627649 34.5980198,11.654894 C35.5485149,12.7991927 36.9214521,13.4772957 38.4,13.5408678 L38.4,17.3763875 C38.4,20.5973764 35.7808581,23.2250252 32.570297,23.2250252 C29.359736,23.2250252 26.7405941,20.5973764 26.7405941,17.3763875 L26.7405941,13.5408678 L26.7828383,13.5408678 Z M29.8033003,27.4631685 L29.8033003,25.1533804 C31.619802,25.8102926 33.6052805,25.8102926 35.4217822,25.1533804 L35.4217822,27.4631685 C35.4217822,29.0100908 34.1544554,30.2815338 32.6125413,30.2815338 C31.0706271,30.2815338 29.8033003,29.0100908 29.8033003,27.4631685 Z M27.4587459,28.3107972 C27.860066,30.8536831 30.0356436,32.7184662 32.6125413,32.7184662 C35.1894389,32.7184662 37.3438944,30.8324924 37.7663366,28.3107972 L38.2732673,28.5438951 L32.8660066,39.308779 L32.3590759,39.308779 L26.9518152,28.5438951 L27.4587459,28.3107972 Z M37.3861386,47.6367306 C37.3861386,47.827447 37.3016502,48.0181635 37.1749175,48.1664985 C37.0270627,48.3148335 36.8369637,48.3784057 36.6468647,48.3784057 L28.5993399,48.3784057 C28.1980198,48.3784057 27.860066,48.0393542 27.860066,47.6367306 L27.860066,42.5933401 C27.860066,42.1907164 28.1980198,41.851665 28.5993399,41.851665 L36.6468647,41.851665 C37.0481848,41.851665 37.3861386,42.1907164 37.3861386,42.5933401 L37.3861386,47.6367306 Z M52.509571,22.419778 C52.509571,22.864783 52.150495,23.2250252 51.7069307,23.2250252 C51.2633663,23.2250252 50.9042904,22.864783 50.9042904,22.419778 L50.9042904,17.5882947 L52.4884488,17.5882947 L52.4884488,22.419778 L52.509571,22.419778 Z M48.9188119,14.346115 L48.9188119,10.3198789 C48.9188119,9.87487386 49.2778878,9.51463169 49.7214521,9.51463169 L54.5372937,9.51463169 L54.5372937,15.1513623 L49.7214521,15.1513623 C49.2778878,15.1301715 48.9188119,14.7699294 48.9188119,14.346115 Z"/>
  </g>
</svg>
