<svg xmlns="http://www.w3.org/2000/svg" width="64" height="65" viewBox="0 0 64 65">
  <g fill="#004B9C">
    <path d="M23.7190031 18.8710167L22.3217492 18.8710167C22.7271148 18.5375667 23.1002984 18.1675 23.4457756 17.7701333 26.5002971 17.3885833 28.875373 14.7391833 28.875373 11.5323L28.875373 6.29026667C28.875373 4.55628333 27.4872835 3.14513333 25.7816363 3.14513333L25.6505638 3.14513333C25.1925561 1.3377 23.5742905 0 21.6561568 0L11.3438432 0C7.364355 0 4.12484016 3.2929 4.12484016 7.33871667L4.12484016 11.5323C4.12484016 14.7394 6.49991604 17.3885833 9.55550317 17.7701333 9.90098038 18.1664167 10.2743771 18.5375667 10.6795296 18.8710167L9.28121004 18.8710167C4.16298971 18.8710167 0 23.1033833 0 28.3064167L0 38.7902667C0 42.2593167 2.77511334 45.0805333 6.18747336 45.0805333L6.18747336 65 26.8125266 65 26.8125266 45.08075C30.2248867 45.08075 33 42.2595333 33 38.7904833L33 28.3066333C33.0002131 23.1033833 28.8370103 18.8710167 23.7190031 18.8710167zM6.18768649 11.5323L6.18768649 7.33871667C6.18768649 4.44838333 8.50074271 2.09668333 11.3440564 2.09668333L21.656583 2.09668333C22.7940363 2.09668333 23.7190031 3.03701667 23.7190031 4.19336667L23.7190031 5.24181667 25.7814232 5.24181667C26.3506826 5.24181667 26.8127398 5.71155 26.8127398 6.29026667L26.8127398 11.5323C26.8127398 12.8910167 26.1639843 14.0883167 25.1761454 14.8546667 25.5608378 13.8198667 25.7814232 12.7033833 25.7814232 11.5323L25.7814232 8.38716667 24.7501066 8.38716667C23.9602617 8.38716667 23.2631266 7.87561667 23.0135561 7.11446667L22.3999664 5.24203333 19.8827355 5.24203333 19.6465919 5.9592C19.1708947 7.4113 17.839923 8.38716667 16.3329092 8.38716667L7.21857684 8.38716667 7.21857684 11.5323C7.21857684 12.7033833 7.43916222 13.8198667 7.82385461 14.8546667 6.83601571 14.0883167 6.18768649 12.8910167 6.18768649 11.5323zM9.28142316 11.5323L9.28142316 10.48385 16.3331224 10.48385C18.2934551 10.48385 20.0694339 9.44385 21.064519 7.79891667 21.487361 9.06425 22.4948075 10.0026333 23.7190031 10.34345L23.7190031 11.5323C23.7190031 15.5781167 20.4799145 18.8710167 16.5002131 18.8710167 12.5205118 18.8710167 9.28142316 15.5779 9.28142316 11.5323zM16.8156396 27.2579667L16.1835079 27.2579667 13.8632054 20.9677 19.1359421 20.9677 16.8156396 27.2579667zM18.5624201 32.5C18.5624201 33.65635 17.6374533 34.5966833 16.5 34.5966833 15.3627598 34.5966833 14.4375799 33.65635 14.4375799 32.5 14.4375799 31.34365 15.3625467 30.4033167 16.5 30.4033167 17.6374533 30.4033167 18.5624201 31.34365 18.5624201 32.5zM6.18768649 42.98385C4.66745889 42.98385 3.35161911 42.1347333 2.63594208 40.8871667L6.18768649 40.8871667 6.18768649 42.98385zM15.4688965 62.9033167L8.25010656 62.9033167 8.25010656 60.8066333 15.4688965 60.8066333 15.4688965 62.9033167zM24.7501066 62.9033167L17.5313166 62.9033167 17.5313166 60.8066333 24.7501066 60.8066333 24.7501066 62.9033167zM24.7501066 58.7097333L17.5313166 58.7097333 17.5313166 47.1774333 15.4688965 47.1774333 15.4688965 58.7097333 8.25010656 58.7097333 8.25010656 42.98385 24.7501066 42.98385 24.7501066 58.7097333zM26.8127398 42.98385L26.8127398 40.8871667 30.3644842 40.8871667C29.6483809 42.1347333 28.3327542 42.98385 26.8127398 42.98385zM30.937793 38.7902667L26.8127398 38.7902667 26.8127398 26.2095167 24.7503197 26.2095167 24.7503197 40.88695 8.25010656 40.88695 8.25010656 26.2095167 6.18768649 26.2095167 6.18768649 38.7902667 2.06242008 38.7902667 2.06242008 28.3064167C2.06242008 24.2606 5.30150867 20.9677 9.28121004 20.9677L11.6603353 20.9677 13.9806378 27.2579667 9.28121004 27.2579667 9.28121004 36.6933667 23.71879 36.6933667 23.71879 27.2579667 19.0195753 27.2579667 21.3398778 20.9677 23.7190031 20.9677C27.6987045 20.9677 30.937793 24.2606 30.937793 28.3064167L30.937793 38.7902667zM12.9484687 34.5966833L11.3438432 34.5966833 11.3438432 29.35465 13.8003333 29.35465C12.9339762 30.12425 12.3751598 31.2407333 12.3751598 32.4997833 12.3751598 33.2674333 12.5938271 33.9772333 12.9484687 34.5966833zM19.1996667 29.3548667L21.6561568 29.3548667 21.6561568 34.5969 20.0515313 34.5969C20.406386 33.9772333 20.6248402 33.26765 20.6248402 32.5002167 20.6252664 31.24095 20.0660238 30.12425 19.1996667 29.3548667zM58.6297858 26.2098207L58.6297858 5.24205081C58.6297858 3.50806169 57.1840699 2.09690699 55.4076129 2.09690699L55.2100562 2.09690699C54.7652205.879669599 53.5838755 0 52.1852181 0L46.8147819 0C45.4163465 0 44.2347795.879669599 43.7901658 2.09669032L43.592609 2.09669032C41.816152 2.09669032 40.3704361 3.50784503 40.3704361 5.24183414L40.3704361 26.209604C37.4093045 26.209604 35 28.5610952 35 31.4516548L35 55.5645685C35 57.504175 36.0976609 59.1824806 37.7067495 60.088367 37.354477 60.592552 37.1482632 61.2007373 37.1482632 61.8548562 37.1482632 63.5888453 38.5939791 65 40.3704361 65 42.1468931 65 43.592609 63.5888453 43.592609 61.8548562 43.592609 61.4858716 43.5153621 61.1357371 43.3950523 60.8064027L55.6060576 60.8064027C55.4846379 61.1355205 55.407391 61.485655 55.407391 61.8548562 55.407391 63.5888453 56.8531069 65 58.6295639 65 60.4060209 65 61.8517368 63.5888453 61.8517368 61.8548562 61.8517368 61.2007373 61.645523 60.592552 61.2932505 60.088367 62.9021172 59.1824806 64 57.504175 64 55.5645685L64 31.4516548C64.000222 28.5613119 61.5909174 26.2098207 58.6297858 26.2098207zM46.8150039 2.09669032L52.18544 2.09669032C52.7783323 2.09669032 53.2595717 2.56642522 53.2595717 3.14514382 53.2595717 3.72386241 52.7783323 4.19359731 52.18544 4.19359731L46.8150039 4.19359731C46.2221117 4.19359731 45.7408723 3.72386241 45.7408723 3.14514382 45.7408723 2.56642522 46.2221117 2.09669032 46.8150039 2.09669032zM43.592831 4.19359731L43.7903878 4.19359731C44.2350015 5.4108347 45.4165684 6.29028763 46.8150039 6.29028763L52.18544 6.29028763C53.5838755 6.29028763 54.7654425 5.41061804 55.2100562 4.19359731L55.4076129 4.19359731C56.0005052 4.19359731 56.4817446 4.66333221 56.4817446 5.24205081L56.4817446 26.2098207 42.5189214 26.2098207 42.5189214 5.24205081 42.5186994 5.24205081C42.5186994 4.66333221 42.9999388 4.19359731 43.592831 4.19359731zM37.1482632 31.4518715C37.1482632 29.7176657 38.5939791 28.306511 40.3704361 28.306511L41.4445678 28.306511 41.4445678 32.5001083C41.4445678 33.0788269 40.9633284 33.5485618 40.3704361 33.5485618L37.1482632 33.5485618 37.1482632 31.4518715zM40.3706581 62.9035263C39.7777659 62.9035263 39.2965265 62.4337914 39.2965265 61.8550729 39.2965265 61.2763543 39.7777659 60.8066194 40.3706581 60.8066194 40.9635504 60.8066194 41.4447897 61.2763543 41.4447897 61.8550729 41.4447897 62.4337914 40.9633284 62.9035263 40.3706581 62.9035263zM41.4447897 58.709929L40.3706581 58.709929C38.5942011 58.709929 37.1484852 57.2987743 37.1484852 55.5647852L37.1484852 53.4678782 40.3706581 53.4678782C40.9635504 53.4678782 41.4447897 53.9376131 41.4447897 54.5163317L41.4447897 58.709929zM58.6297858 62.9035263C58.0368936 62.9035263 57.5556542 62.4337914 57.5556542 61.8550729 57.5556542 61.2763543 58.0368936 60.8066194 58.6297858 60.8066194 59.2226781 60.8066194 59.7039175 61.2763543 59.7039175 61.8550729 59.7039175 62.4337914 59.2226781 62.9035263 58.6297858 62.9035263zM61.8519587 55.5645685C61.8519587 57.2987743 60.4062428 58.709929 58.6297858 58.709929L57.5556542 58.709929 57.5556542 54.5163317C57.5556542 53.9376131 58.0368936 53.4678782 58.6297858 53.4678782L61.8519587 53.4678782 61.8519587 55.5645685zM61.8519587 51.3711879L58.6297858 51.3711879C56.8533288 51.3711879 55.4076129 52.7823426 55.4076129 54.5163317L55.4076129 58.709929 43.592831 58.709929 43.592831 54.5163317C43.592831 52.7823426 42.1471151 51.3711879 40.3706581 51.3711879L37.1484852 51.3711879 37.1484852 35.6452522 40.3706581 35.6452522C42.1471151 35.6452522 43.592831 34.2340974 43.592831 32.5001083L43.592831 28.306511 55.4076129 28.306511 55.4076129 32.5001083C55.4076129 34.2340974 56.8533288 35.6452522 58.6297858 35.6452522L61.8519587 35.6452522 61.8519587 51.3711879zM61.8519587 33.5483452L58.6297858 33.5483452C58.0368936 33.5483452 57.5556542 33.0786103 57.5556542 32.4998917L57.5556542 28.3062944 58.6297858 28.3062944C60.4062428 28.306511 61.8519587 29.7176657 61.8519587 31.4516548L61.8519587 33.5483452z"/>
  </g>
</svg>
